<svg width="892" height="887" viewBox="0 0 892 887" fill="none" xmlns="http://www.w3.org/2000/svg">
<g filter="url(#filter0_f_12_584)">
<rect x="200" y="200" width="492" height="487" fill="#5CF55C"/>
</g>
<rect x="243.5" y="185.5" width="491" height="516" stroke="#FAFAFA"/>
<path d="M497.19 323.4C502.707 366.38 528.071 394.84 528.071 394.84L505.685 403.83L489.255 392.76L485.502 345.89L493.147 320.26L497.19 323.41" fill="#EAB18B"/>
<path d="M396.685 301.12C397.469 301.12 398.244 300.69 398.682 299.92C399.354 298.74 399.009 297.2 397.907 296.48L390.458 291.61C389.356 290.89 387.919 291.26 387.246 292.44C386.574 293.62 386.92 295.16 388.021 295.88L395.471 300.75C395.854 301 396.274 301.12 396.685 301.12Z" fill="white"/>
<path d="M425.858 320.18C426.642 320.18 427.417 319.75 427.855 318.98C428.528 317.8 428.182 316.26 427.081 315.54L408.055 303.11C406.953 302.39 405.516 302.76 404.844 303.94C404.171 305.12 404.517 306.66 405.618 307.38L424.644 319.81C425.027 320.06 425.447 320.18 425.858 320.18Z" fill="white"/>
<path d="M453.948 338.53C454.732 338.53 455.507 338.1 455.946 337.33C456.618 336.15 456.273 334.61 455.171 333.89L433.597 319.8C432.495 319.08 431.058 319.45 430.385 320.63C429.713 321.81 430.059 323.35 431.16 324.07L452.734 338.16C453.117 338.41 453.537 338.53 453.948 338.53Z" fill="white"/>
<path d="M438.489 365.54C438.899 365.54 439.319 365.42 439.702 365.17L455.171 355.07C456.273 354.35 456.618 352.81 455.946 351.63C455.274 350.45 453.836 350.08 452.734 350.8L437.266 360.9C436.164 361.62 435.819 363.16 436.491 364.34C436.93 365.11 437.695 365.54 438.489 365.54Z" fill="white"/>
<path d="M404.218 387.93C404.629 387.93 405.049 387.81 405.432 387.56L431.646 370.44C432.747 369.72 433.093 368.18 432.421 367C431.748 365.82 430.311 365.45 429.209 366.17L402.995 383.29C401.894 384.01 401.548 385.55 402.221 386.73C402.659 387.5 403.425 387.93 404.218 387.93Z" fill="white"/>
<path d="M389.235 397.72C389.646 397.72 390.066 397.6 390.449 397.35L398.337 392.19C399.439 391.47 399.784 389.93 399.112 388.75C398.44 387.57 397.002 387.2 395.9 387.92L388.012 393.08C386.91 393.8 386.565 395.34 387.237 396.52C387.676 397.29 388.441 397.72 389.235 397.72Z" fill="white"/>
<path d="M416.896 346.98H442.736C444.024 346.98 445.07 345.86 445.07 344.48C445.07 343.1 444.024 341.98 442.736 341.98H416.896C415.607 341.98 414.562 343.1 414.562 344.48C414.562 345.86 415.607 346.98 416.896 346.98Z" fill="white"/>
<path d="M383.68 346.98H401.716C403.005 346.98 404.05 345.86 404.05 344.48C404.05 343.1 403.005 341.98 401.716 341.98H383.68C382.392 341.98 381.347 343.1 381.347 344.48C381.347 345.86 382.392 346.98 383.68 346.98Z" fill="white"/>
<path d="M356.477 346.98H367.913C369.201 346.98 370.247 345.86 370.247 344.48C370.247 343.1 369.201 341.98 367.913 341.98H356.477C355.189 341.98 354.143 343.1 354.143 344.48C354.143 345.86 355.189 346.98 356.477 346.98Z" fill="white"/>
<mask id="mask0_12_584" style="mask-type:luminance" maskUnits="userSpaceOnUse" x="256" y="185" width="467" height="500">
<path d="M256 185H722.771V685H256V185Z" fill="white"/>
</mask>
<g mask="url(#mask0_12_584)">
<g style="mix-blend-mode:color-burn">
<path d="M405.777 444.14L406.104 442.64C407.271 437.28 412.275 433.95 417.279 435.2L421.61 436.28C422.983 436.62 424.355 435.68 424.635 434.19V434.12C424.906 432.71 424.084 431.34 422.777 431.01L421.013 430.57C416.009 429.32 412.9 423.96 414.067 418.6L414.394 417.1C415.561 411.74 420.565 408.41 425.568 409.66L427.678 410.19V366.15C427.678 361.77 430.862 358.2 434.885 357.93V351.49H440.272L443.763 345.54C444.566 344.17 445.668 343.07 446.956 342.31V312.43H482.963V343.22C483.719 343.87 484.382 344.64 484.914 345.54L488.405 351.49H495.183V357.91C495.705 357.91 496.209 357.97 496.704 358.08C496.956 358.14 497.199 358.2 497.442 358.28C500.578 359.32 502.856 362.46 502.856 366.16V397.34C502.931 397.32 502.996 397.28 503.062 397.26L504.957 396.66C507.319 395.92 509.793 397.36 510.493 399.89L513.2 411.72L523.534 431.64C528.202 440.64 530.741 450.72 530.928 461.01L531.805 508.32C532.076 522.86 538.928 536.35 550.168 544.49L714.518 640.67V704.27H617.243L501.269 569.14C491.243 558.1 486.809 553.53 477.091 549.96L468.213 546.7H435.389C431.132 546.7 427.688 543.01 427.688 538.45V512.9C427.688 511.74 426.894 510.8 425.83 510.58C425.83 510.58 425.82 510.58 425.811 510.58L418.109 509.03C413.059 508.01 409.736 502.8 410.688 497.4L410.949 495.89C411.901 490.48 416.765 486.92 421.806 487.94L423.179 488.22C423.879 488.36 424.504 487.71 424.383 486.96C424.383 486.94 424.383 486.93 424.383 486.91C424.308 486.44 423.963 486.09 423.524 486C422.544 485.8 421.573 485.42 420.658 484.85L416.943 482.55C412.49 479.8 410.968 473.71 413.535 468.94L414.254 467.61C415.654 465.01 417.988 463.35 420.537 462.82C421.592 462.6 422.366 461.64 422.366 460.49V460.44C422.366 459.33 421.648 458.36 420.639 458.11L412.723 456.13C407.719 454.88 404.61 449.52 405.777 444.16V444.14Z" fill="#B3B3B3"/>
</g>
<path d="M449.644 384.1C449.644 384.1 427.398 414.85 442.998 464.73C458.261 513.55 496.266 421.75 496.266 421.75L449.644 384.09V384.1Z" fill="#EAB18B"/>
<path d="M470.836 332.67H500.308V362.81H470.836V332.67Z" fill="#BCBCBC"/>
<path d="M485.632 332.67H500.308V362.81H485.632V332.67Z" fill="#A3A3A3"/>
<path d="M470.836 335.22C471.359 335.14 471.891 335.08 472.442 335.08C478.444 335.08 483.308 340.29 483.308 346.72C483.308 353.15 478.444 358.36 472.442 358.36C471.891 358.36 471.359 358.3 470.836 358.22V335.23V335.22Z" fill="#727271"/>
<path d="M483.308 346.71C483.308 351.95 480.069 356.38 475.616 357.84H474.038V340.43H481.581C482.673 342.24 483.308 344.4 483.308 346.71Z" fill="#A5A5A2"/>
<path d="M468.222 359.77C469.538 357.53 471.835 356.17 474.309 356.17H495.817C498.291 356.17 500.588 357.53 501.904 359.77L505.881 366.55H464.254L468.231 359.77H468.222Z" fill="#828282"/>
<path d="M474.663 347.01C474.663 344.73 475.532 342.88 476.605 342.88C477.679 342.88 478.547 344.73 478.547 347.01C478.547 349.29 477.679 351.14 476.605 351.14C475.532 351.14 474.663 349.29 474.663 347.01Z" fill="#4F4F4F"/>
<path d="M475.998 347.01C475.998 346.3 476.269 345.73 476.605 345.73C476.941 345.73 477.212 346.3 477.212 347.01C477.212 347.72 476.941 348.29 476.605 348.29C476.269 348.29 475.998 347.72 475.998 347.01Z" fill="white"/>
<path d="M476.605 347.58C476.455 347.58 476.334 347.325 476.334 347.01C476.334 346.695 476.455 346.44 476.605 346.44C476.755 346.44 476.876 346.695 476.876 347.01C476.876 347.325 476.755 347.58 476.605 347.58Z" fill="#4F4F4F"/>
<path d="M455.628 363.16H515.898V377.28H455.628V363.16Z" fill="#4F4F4F"/>
<path d="M456.114 369.58H515.861C520.114 369.58 523.562 373.274 523.562 377.83V525.12C523.562 529.676 520.114 533.37 515.861 533.37H456.114C451.86 533.37 448.412 529.676 448.412 525.12V377.83C448.412 373.274 451.86 369.58 456.114 369.58Z" fill="#FFCE00"/>
<path d="M502.231 525.12V377.83C502.231 373.27 498.786 369.58 494.529 369.58H515.861C520.117 369.58 523.562 373.27 523.562 377.83V525.12C523.562 529.68 520.117 533.37 515.861 533.37H494.529C498.786 533.37 502.231 529.68 502.231 525.12Z" fill="#F7AE00"/>
<path d="M457.673 398.1C459.904 398.1 461.706 396.68 461.706 394.92V387.76C461.706 386 459.895 384.58 457.673 384.58C455.442 384.58 453.64 386 453.64 387.76V394.92C453.64 396.68 455.451 398.1 457.673 398.1Z" fill="white"/>
<path d="M448.412 424.22H523.562V490.55H448.412V424.22Z" fill="#16834A"/>
<path d="M502.231 424.22H523.562V490.55H502.231V424.22Z" fill="#146D3C"/>
<path d="M465.875 475.839C456.352 464.557 457.17 447.142 467.702 436.941C478.234 426.74 494.492 427.616 504.015 438.897C513.538 450.179 512.72 467.595 502.188 477.796C491.656 487.997 475.398 487.121 465.875 475.839Z" fill="#D04226"/>
<path d="M484.942 479.37C473.604 479.37 464.413 469.525 464.413 457.38C464.413 445.235 473.604 435.39 484.942 435.39C496.279 435.39 505.47 445.235 505.47 457.38C505.47 469.525 496.279 479.37 484.942 479.37Z" fill="white"/>
<path d="M494.23 453.84C494.23 453.84 499.3 472.44 492.242 472.78C486.613 473.05 494.23 453.84 494.23 453.84Z" fill="#D8E2E4"/>
<path d="M492.606 471.02C492.681 469.12 492.849 467.22 493.007 465.32C492.447 466.24 491.906 467.2 491.243 468.02C491.243 468.02 491.215 468.02 491.224 468.01C491.728 466.9 492.438 465.87 493.045 464.83C493.101 464.24 493.147 463.65 493.194 463.06C493.213 462.78 493.241 462.49 493.259 462.21C492.877 463.06 492.485 463.9 492.065 464.73C492.065 464.75 492.037 464.73 492.037 464.72C492.429 463.68 492.849 462.66 493.297 461.64C493.362 460.84 493.428 460.03 493.484 459.23C493.185 459.89 492.839 460.54 492.513 461.18C492.513 461.2 492.475 461.18 492.485 461.17C492.811 460.25 493.11 459.31 493.54 458.44C493.54 458.4 493.54 458.36 493.54 458.32C493.521 458.28 493.512 458.24 493.493 458.21C493.474 458.15 493.512 458.09 493.558 458.07C493.586 457.72 493.614 457.38 493.642 457.03C493.689 456.39 493.67 455.7 493.876 455.09C493.913 454.97 494.081 455 494.1 455.12C494.184 455.68 494.072 456.25 494.016 456.8C493.969 457.34 493.913 457.88 493.866 458.42C494.398 459.28 494.763 460.29 495.22 461.18C495.248 461.24 495.145 461.31 495.117 461.24C494.716 460.48 494.202 459.74 493.82 458.95C493.745 459.76 493.661 460.56 493.586 461.36C494.034 462.22 494.576 463.03 494.977 463.91C494.987 463.93 494.959 463.95 494.949 463.93C494.436 463.23 494.016 462.46 493.549 461.72C493.512 462.08 493.474 462.44 493.446 462.81C493.39 463.41 493.344 464.01 493.288 464.61C493.577 465.02 493.838 465.46 494.1 465.89C494.352 466.29 494.632 466.68 494.828 467.12C494.847 467.16 494.8 467.18 494.772 467.15C494.464 466.8 494.23 466.38 493.969 465.99C493.726 465.63 493.474 465.26 493.25 464.89C493.082 466.94 492.905 468.99 492.643 471.01C492.643 471.06 492.559 471.05 492.569 471L492.606 471.02Z" fill="#95BAC2"/>
<path d="M486.725 448.96C486.725 448.96 483.672 468.06 477.193 465.05C472.021 462.66 486.725 448.96 486.725 448.96Z" fill="#D8E2E4"/>
<path d="M478.239 463.64C479.079 461.97 480.013 460.34 480.937 458.71C480.059 459.27 479.172 459.88 478.248 460.31C478.239 460.31 478.23 460.3 478.239 460.29C479.144 459.53 480.199 458.94 481.18 458.29C481.469 457.78 481.758 457.27 482.038 456.77C482.178 456.53 482.309 456.28 482.44 456.04C481.749 456.62 481.049 457.2 480.33 457.75C480.321 457.76 480.302 457.75 480.311 457.73C481.096 456.98 481.889 456.26 482.711 455.55C483.093 454.86 483.485 454.16 483.859 453.47C483.317 453.93 482.748 454.34 482.188 454.77C482.169 454.78 482.15 454.77 482.169 454.75C482.841 454.08 483.495 453.37 484.232 452.79C484.251 452.76 484.27 452.72 484.288 452.69C484.288 452.65 484.288 452.61 484.288 452.57C484.288 452.5 484.354 452.47 484.4 452.48C484.568 452.18 484.736 451.88 484.904 451.58C485.212 451.03 485.474 450.4 485.903 449.94C485.987 449.85 486.127 449.96 486.09 450.08C485.941 450.62 485.605 451.08 485.334 451.56C485.063 452.02 484.802 452.48 484.54 452.94C484.671 453.96 484.587 455.04 484.624 456.06C484.624 456.13 484.512 456.14 484.503 456.06C484.447 455.19 484.298 454.28 484.27 453.39C483.868 454.08 483.476 454.76 483.075 455.45C483.131 456.44 483.28 457.41 483.28 458.4C483.28 458.42 483.252 458.42 483.243 458.4C483.065 457.53 483.009 456.64 482.888 455.75C482.711 456.06 482.524 456.37 482.346 456.68C482.057 457.19 481.758 457.71 481.469 458.23C481.562 458.74 481.609 459.26 481.674 459.77C481.73 460.25 481.833 460.73 481.833 461.22C481.833 461.26 481.786 461.26 481.777 461.22C481.646 460.76 481.609 460.27 481.534 459.8C481.469 459.36 481.385 458.92 481.338 458.47C480.349 460.23 479.35 461.99 478.286 463.69C478.258 463.74 478.192 463.69 478.22 463.64H478.239Z" fill="#95BAC2"/>
<path d="M478.967 472.65C479.266 472.71 479.564 472.75 479.873 472.78C481.525 472.94 483.168 472.68 484.69 472.07C485.492 471.75 486.267 471.32 486.986 470.8C487.677 470.3 488.321 469.72 488.9 469.05C489.012 468.92 489.133 468.78 489.245 468.64C489.721 468.05 490.16 467.4 490.571 466.68C491.01 465.91 491.392 465.06 491.71 464.13C492.494 461.84 492.858 459.07 492.503 455.81C492.475 455.56 492.447 455.3 492.41 455.05L490.366 454.67L484.998 453.68C484.998 453.68 483.392 454.15 481.45 457.29C481.011 458 480.545 458.86 480.087 459.88C480.003 460.06 479.929 460.24 479.845 460.43C479.611 460.97 479.331 461.48 479.004 461.95C478.482 462.71 477.837 463.37 477.109 463.88C476.596 464.24 476.036 464.54 475.438 464.75C475.364 464.78 475.298 464.8 475.223 464.82C475.223 464.82 475.205 464.82 475.195 464.82C474.243 465.14 473.599 465.97 473.394 466.92C473.244 467.63 473.347 468.41 473.758 469.08C474.701 470.62 476.297 472.13 478.986 472.63L478.967 472.65Z" fill="#260000"/>
<path d="M480.069 459.88C480.526 458.86 480.993 458.01 481.432 457.29C483.243 459.61 485.913 461.73 489.105 463.16C489.964 463.55 490.832 463.87 491.691 464.13C491.374 465.05 490.991 465.9 490.552 466.68C489.731 466.41 488.909 466.1 488.097 465.73C484.914 464.3 482.132 462.27 480.059 459.88H480.069Z" fill="#BA0001"/>
<path d="M477.081 463.89C477.819 463.38 478.463 462.72 478.976 461.96C480.778 464.2 483.392 466.24 486.501 467.63C487.406 468.04 488.321 468.37 489.236 468.64C489.124 468.78 489.012 468.92 488.891 469.05C488.312 469.72 487.668 470.3 486.977 470.8C486.482 470.62 485.987 470.41 485.502 470.2C482.122 468.68 479.191 466.48 477.081 463.9V463.89Z" fill="#BA0001"/>
<path d="M479.873 472.78C477.24 471.21 474.999 469.2 473.375 466.94C473.58 465.99 474.225 465.16 475.177 464.84C476.96 467.49 479.891 469.96 483.476 471.57C483.877 471.75 484.288 471.92 484.69 472.07C483.168 472.69 481.525 472.94 479.873 472.78Z" fill="#BA0001"/>
<g style="mix-blend-mode:multiply">
<path d="M478.967 472.65C479.266 472.71 479.564 472.75 479.873 472.78C481.525 472.94 483.168 472.69 484.69 472.07C485.492 471.75 486.267 471.32 486.986 470.8C487.677 470.3 488.321 469.72 488.9 469.05C489.012 468.92 489.133 468.78 489.245 468.64C489.721 468.05 490.16 467.4 490.571 466.68C491.01 465.91 491.392 465.06 491.71 464.13C492.494 461.84 492.858 459.07 492.503 455.81C492.475 455.56 492.447 455.3 492.41 455.05L490.87 454.77C490.898 457.11 490.543 459.15 489.936 460.92C489.619 461.84 489.236 462.69 488.797 463.46C488.396 464.18 487.948 464.83 487.472 465.42C487.36 465.56 487.248 465.7 487.126 465.83C486.547 466.5 485.903 467.08 485.212 467.58C484.494 468.1 483.728 468.53 482.916 468.85C481.394 469.47 479.751 469.72 478.099 469.56C477.8 469.53 477.501 469.49 477.193 469.43C475.504 469.11 474.243 468.39 473.3 467.52C473.3 468.05 473.431 468.6 473.73 469.08C474.673 470.62 476.269 472.13 478.958 472.63L478.967 472.65Z" fill="#B8C0C2"/>
</g>
<path d="M485.287 453.99L483.905 453.68C483.401 453.57 482.888 453.78 482.589 454.23L479.901 458.2C479.789 458.37 479.593 458.47 479.396 458.46L478.295 458.41C478.033 458.4 477.791 458.58 477.716 458.85L477.081 461.02L478.08 459.5C478.155 459.38 478.276 459.31 478.416 459.3L479.957 459.22C480.19 459.21 480.414 459.08 480.545 458.88L483 455.24C483.093 455.1 483.252 455.04 483.411 455.07L485.007 455.44C485.324 455.51 485.642 455.35 485.782 455.04C485.987 454.6 485.745 454.07 485.296 453.97L485.287 453.99Z" fill="#080807"/>
<path d="M486.407 452.35L485.53 451.17C485.212 450.74 484.69 450.55 484.185 450.69L479.742 451.9C479.546 451.95 479.35 451.9 479.2 451.76L478.379 450.97C478.183 450.78 477.893 450.76 477.669 450.91L475.886 452.14L477.557 451.66C477.688 451.62 477.819 451.66 477.931 451.74L479.163 452.73C479.35 452.88 479.592 452.93 479.826 452.87L483.887 451.75C484.045 451.71 484.204 451.77 484.307 451.9L485.315 453.28C485.511 453.55 485.856 453.64 486.146 453.5C486.566 453.3 486.697 452.73 486.407 452.35Z" fill="#080807"/>
<path d="M487.724 451.69L487.882 450.19C487.938 449.64 487.696 449.11 487.257 448.83L483.327 446.31C483.159 446.2 483.047 446.01 483.037 445.8L482.981 444.62C482.972 444.34 482.776 444.1 482.524 444.04L480.451 443.55L481.945 444.48C482.057 444.55 482.141 444.68 482.16 444.82L482.374 446.45C482.402 446.7 482.542 446.92 482.748 447.05L486.351 449.34C486.491 449.43 486.566 449.59 486.547 449.76L486.351 451.5C486.314 451.84 486.491 452.17 486.79 452.29C487.219 452.47 487.686 452.17 487.742 451.68L487.724 451.69Z" fill="#080807"/>
<path d="M487.462 458.98C488.172 459.23 489.507 457.57 489.507 457.57C489.507 457.57 489.021 459.37 489.32 459.5C490.3 459.94 491.308 458.99 491.906 457.58C491.691 458.21 491.318 459.58 491.906 459.74C492.541 459.91 495.248 456.92 494.52 453.27C494.361 452.47 494.044 451.64 493.493 450.8L487.668 448.66C487.668 448.66 486.79 448.66 485.772 449.2C484.606 449.81 483.261 451.09 482.822 453.81C482.72 454.43 483.345 454.89 483.821 454.52C483.961 454.41 484.12 454.26 484.288 454.05C484.288 454.05 483.056 456.26 484.073 456.81C484.578 457.12 485.044 455.44 485.11 455.2C485.063 455.47 484.718 457.67 485.884 458.26C486.473 458.52 487.257 456.2 487.257 456.2C487.257 456.2 486.743 458.71 487.453 458.96L487.462 458.98Z" fill="#363634"/>
<path d="M489.301 453.55C491.056 454.34 492.97 454.17 494.52 453.27C494.361 452.47 494.044 451.64 493.493 450.8L487.668 448.66C487.668 448.66 486.79 448.66 485.773 449.2C486.23 451.09 487.481 452.73 489.292 453.54L489.301 453.55Z" fill="#262625"/>
<path d="M488.918 452.56C491.644 453.78 494.781 452.41 495.929 449.48C496.433 448.18 496.461 446.8 496.097 445.56C495.733 444.32 494.986 443.22 493.932 442.48C493.81 442.39 493.68 442.31 493.549 442.24C493.39 442.15 493.222 442.06 493.054 441.98C492.317 441.65 491.551 441.51 490.795 441.54C489.236 441.6 487.742 442.4 486.771 443.74C486.482 444.13 486.239 444.57 486.053 445.06C485.922 445.38 485.828 445.71 485.763 446.04C485.212 448.7 486.501 451.48 488.918 452.56Z" fill="#30302F"/>
<path d="M488.75 451.15C491.234 452.26 494.1 451.01 495.136 448.35C495.948 446.26 495.407 443.93 493.932 442.48C493.661 442.29 493.362 442.12 493.054 441.98C490.328 440.76 487.191 442.13 486.052 445.06C485.922 445.38 485.828 445.71 485.763 446.04C485.651 448.19 486.79 450.28 488.75 451.15Z" fill="#363634"/>
<path d="M493.119 446.88C493.978 447.27 494.996 447.04 495.64 446.32C495.64 446.32 495.64 446.32 495.64 446.31C495.836 446.09 495.985 445.85 496.088 445.58C495.724 444.33 494.977 443.23 493.922 442.49C493.801 442.4 493.67 442.32 493.54 442.25C493.147 442.33 492.783 442.53 492.475 442.82C492.214 443.07 492.018 443.37 491.887 443.7C491.869 443.74 491.859 443.77 491.85 443.81C491.439 445.03 491.999 446.38 493.119 446.89V446.88Z" fill="#262625"/>
<path d="M487.78 444.62C488.937 445.14 490.272 444.55 490.758 443.31C490.888 442.98 490.944 442.62 490.926 442.24C490.916 442 490.87 441.76 490.795 441.55C489.236 441.61 487.742 442.41 486.771 443.75C486.79 443.78 486.809 443.8 486.827 443.83C487.07 444.18 487.406 444.46 487.78 444.63V444.62Z" fill="#262625"/>
<path d="M490.608 451.83C490.683 451.77 490.748 451.67 490.823 451.53C491.794 449.04 486.855 447.99 486.855 447.99C489.133 449.35 489.917 452.42 490.618 451.83H490.608Z" fill="#FEFFFD"/>
<path d="M495.472 446.14C495.64 445.95 495.78 445.73 495.883 445.47C496.321 444.36 495.827 443.07 494.79 442.61C494.548 442.5 494.296 442.44 494.044 442.44C493.53 442.44 493.026 442.63 492.643 443L495.061 445.68L495.481 446.14H495.472Z" fill="#30302F"/>
<path d="M495.052 445.68C495.145 445.55 495.22 445.41 495.285 445.25C495.696 444.19 495.229 442.97 494.24 442.52C494.174 442.49 494.109 442.47 494.034 442.44C493.521 442.44 493.017 442.63 492.634 443L495.052 445.68Z" fill="#363634"/>
<path d="M493.213 446.65C494.016 447.01 494.912 446.78 495.481 446.14L495.08 445.69L494.436 444.98L493.586 444.04L492.653 443C492.429 443.21 492.251 443.48 492.121 443.79C492.111 443.82 492.093 443.86 492.083 443.89C491.719 444.98 492.214 446.2 493.222 446.65H493.213Z" fill="#D5DBCE"/>
<path d="M493.325 445.78C493.913 446.04 494.548 445.99 495.071 445.69L494.426 444.98L493.577 444.04L492.643 443C492.419 443.21 492.242 443.48 492.111 443.79C492.102 443.82 492.083 443.86 492.074 443.89C492.121 444.7 492.587 445.45 493.325 445.78Z" fill="#FEFFFD"/>
<path d="M493.708 445.17C493.969 445.29 494.258 445.2 494.426 444.98L493.577 444.04C493.493 444.11 493.428 444.2 493.381 444.31C493.25 444.65 493.399 445.04 493.717 445.18L493.708 445.17Z" fill="#BA0001"/>
<path d="M486.613 442.3L490.141 442.26H490.692C490.655 441.44 490.188 440.68 489.441 440.35C488.676 440.01 487.826 440.2 487.257 440.77C487.051 440.98 486.883 441.23 486.762 441.53C486.659 441.78 486.613 442.05 486.613 442.31V442.3Z" fill="#30302F"/>
<path d="M486.613 442.3L490.141 442.26C490.039 441.6 489.6 440.99 488.947 440.7C488.368 440.44 487.742 440.49 487.257 440.76C487.051 440.97 486.883 441.22 486.762 441.52C486.659 441.77 486.613 442.04 486.613 442.3Z" fill="#363634"/>
<path d="M487.864 444.39C488.9 444.86 490.104 444.33 490.533 443.22C490.655 442.91 490.701 442.58 490.683 442.26H490.197L489.329 442.28H488.106L486.603 442.31C486.594 442.8 486.734 443.28 487.005 443.67C487.219 443.98 487.509 444.23 487.864 444.39Z" fill="#D5DBCE"/>
<path d="M487.415 443.91C488.452 444.38 489.656 443.85 490.085 442.74C490.141 442.59 490.188 442.43 490.207 442.27H489.339L488.116 442.29L486.613 442.31C486.603 442.8 486.743 443.28 487.014 443.67C487.135 443.76 487.266 443.84 487.415 443.91Z" fill="#FEFFFD"/>
<path d="M488.498 442.97C488.237 442.85 488.088 442.57 488.125 442.29H489.348C489.367 442.39 489.348 442.51 489.311 442.62C489.18 442.96 488.816 443.12 488.498 442.98V442.97Z" fill="#BA0001"/>
<path d="M490.608 451.83C490.487 450.98 490.02 450.47 490.02 450.47L489.544 450.36V449.95C488.788 448.74 486.846 447.99 486.846 447.99C489.124 449.35 489.908 452.42 490.608 451.83Z" fill="#D5DBCE"/>
<path d="M485.856 445.65L486.771 446.48C486.995 446.68 487.313 446.7 487.546 446.51C487.826 446.28 488.05 445.85 487.593 445.08L485.856 445.64V445.65Z" fill="#30302F"/>
<path d="M487.285 444.83L483.513 443.5L482.496 443.67L482.132 443.02L480.33 442.21L479.443 442.48L477.52 441.62L479.966 443.42L480.517 442.96L481.329 443.32L482.104 444.67L483.532 444.31L487.079 446.36C487.705 446.55 488.004 445.05 487.285 444.84V444.83Z" fill="#363634"/>
<path d="M492.438 453.9C492.438 453.9 492.186 454.55 492.615 454.78C493.045 455.01 493.568 455.08 493.689 454.53L492.438 453.9Z" fill="#262625"/>
<path d="M493.054 455.01C493.054 455.01 492.13 454.86 492.018 455.68C491.915 456.5 493.11 456.51 493.11 456.51L493.045 455.01H493.054Z" fill="#262625"/>
<path d="M492.625 456.99C492.625 456.99 492.036 456.26 491.439 456.84C490.842 457.42 491.775 458.19 491.775 458.19L492.625 456.99Z" fill="#262625"/>
<path d="M493.026 468.25L494.137 466.31C494.277 466.07 494.249 465.76 494.062 465.55L493.306 464.69C493.166 464.53 493.119 464.32 493.166 464.11L494.212 459.33C494.333 458.79 494.146 458.24 493.736 457.9L492.615 456.98C492.569 456.94 492.513 456.91 492.457 456.89C492.111 456.74 491.7 456.9 491.542 457.29C491.42 457.61 491.514 457.97 491.766 458.18L493.073 459.23C493.194 459.33 493.259 459.51 493.222 459.67L492.261 464.04C492.205 464.29 492.261 464.55 492.41 464.74L493.362 466.04C493.446 466.15 493.474 466.3 493.446 466.44L493.035 468.24L493.026 468.25Z" fill="#363634"/>
<path d="M500.084 463.4L499.785 461.15C499.748 460.87 499.542 460.65 499.281 460.62L498.189 460.47C497.992 460.44 497.824 460.31 497.731 460.13L495.677 455.74C495.444 455.25 494.968 454.95 494.464 454.97L493.054 455.03C492.765 455.04 492.541 455.23 492.438 455.49C492.382 455.64 492.363 455.82 492.41 456C492.503 456.33 492.793 456.55 493.11 456.53L494.744 456.45C494.902 456.45 495.052 456.54 495.117 456.69L496.984 460.71C497.087 460.93 497.283 461.1 497.516 461.15L499.019 461.5C499.15 461.53 499.262 461.62 499.318 461.75L500.074 463.42L500.084 463.4Z" fill="#363634"/>
<path d="M493.689 454.53L494.781 453.23C494.884 453.1 495.052 453.06 495.201 453.11L499.178 454.53C499.402 454.61 499.645 454.58 499.85 454.44L501.139 453.54C501.251 453.46 501.391 453.44 501.512 453.49L503.155 454.09L501.456 452.73C501.241 452.56 500.952 452.56 500.746 452.73L499.878 453.46C499.72 453.59 499.514 453.63 499.328 453.56L494.977 452.02C494.492 451.85 493.95 452 493.605 452.4L492.653 453.51C492.597 453.58 492.55 453.65 492.522 453.73V453.76C492.391 454.1 492.522 454.5 492.839 454.69C493.129 454.85 493.474 454.78 493.689 454.53Z" fill="#363634"/>
<path d="M493.689 454.53L494.781 453.23C494.884 453.1 495.052 453.06 495.201 453.11L499.178 454.53C499.402 454.61 499.645 454.58 499.85 454.44L501.139 453.54C501.251 453.46 501.391 453.44 501.512 453.49L503.155 454.09L501.484 453.15C501.279 453.03 501.027 453.04 500.831 453.18L499.692 453.97C499.533 454.08 499.337 454.11 499.15 454.05L495.136 452.76C494.912 452.69 494.669 452.75 494.501 452.92C494.165 453.26 493.614 453.83 493.325 454.12C492.886 454.55 492.522 453.76 492.522 453.76C492.401 454.11 492.531 454.51 492.849 454.69C493.138 454.85 493.484 454.78 493.698 454.53H493.689Z" fill="#30302F"/>
<path d="M500.084 463.4L499.439 461.56C499.346 461.29 499.141 461.09 498.889 461.01L497.787 460.66C497.572 460.59 497.386 460.43 497.283 460.22L495.388 456.45C495.239 456.15 494.94 455.97 494.613 455.98L492.998 456.04C492.401 455.56 493.045 455.03 493.045 455.03C492.755 455.04 492.531 455.23 492.429 455.49C492.373 455.64 492.354 455.82 492.401 456C492.494 456.33 492.783 456.55 493.101 456.53L494.734 456.45C494.893 456.45 495.043 456.54 495.108 456.69L496.975 460.71C497.078 460.93 497.274 461.1 497.507 461.15L499.01 461.5C499.141 461.53 499.253 461.62 499.309 461.75L500.065 463.42L500.084 463.4Z" fill="#30302F"/>
<path d="M493.026 468.25L493.633 466.22C493.689 466.04 493.661 465.83 493.558 465.67L492.737 464.39C492.643 464.24 492.615 464.05 492.653 463.88L493.726 459.41C493.792 459.14 493.689 458.86 493.465 458.72L492.531 458.11C492.13 457.84 492.167 457.19 492.606 457C492.559 456.96 492.503 456.93 492.447 456.91C492.102 456.76 491.691 456.92 491.532 457.31C491.411 457.63 491.504 457.99 491.757 458.2L493.064 459.25C493.185 459.35 493.25 459.53 493.213 459.69L492.251 464.06C492.195 464.31 492.251 464.57 492.401 464.76L493.353 466.06C493.437 466.17 493.465 466.32 493.437 466.46L493.026 468.26V468.25Z" fill="#30302F"/>
<g opacity="0.37">
<path d="M472.095 437.094L501.155 474.949L496.828 478.76L467.769 440.904L472.095 437.094Z" fill="#D04226"/>
</g>
<g style="mix-blend-mode:color-burn">
<path d="M448.412 417.11C449.383 417.32 450.335 417.69 451.231 418.24L454.947 420.54C459.4 423.29 460.922 429.38 458.354 434.15L457.636 435.48C455.703 439.06 452.016 440.87 448.412 440.38V417.1V417.11Z" fill="#B3B3B3"/>
</g>
<path d="M432.42 420.656L433.144 419.313C435.712 414.549 441.398 412.917 445.845 415.668L449.564 417.968C454.011 420.718 455.535 426.809 452.968 431.573L452.244 432.916C449.677 437.679 443.99 439.312 439.543 436.561L435.824 434.261C431.377 431.511 429.853 425.419 432.42 420.656Z" fill="#F1BE98"/>
<g style="mix-blend-mode:color-burn">
<path d="M450.083 466.2L448.422 465.86V444.02L453.789 445.1C458.84 446.12 462.163 451.33 461.211 456.73L460.95 458.24C459.997 463.65 455.134 467.21 450.093 466.19L450.083 466.2Z" fill="#B3B3B3"/>
</g>
<path d="M431.669 448.001L431.403 449.515C430.454 454.92 433.775 460.128 438.821 461.145L446.518 462.697C451.564 463.714 456.426 460.156 457.376 454.751L457.642 453.238C458.592 447.833 455.27 442.625 450.224 441.607L442.518 440.054C437.472 439.036 432.61 442.594 431.66 447.999L431.669 448.001Z" fill="#F1BE98"/>
<g style="mix-blend-mode:color-burn">
<path d="M448.412 392.62L454.779 394.21C459.783 395.46 462.891 400.82 461.724 406.18L461.398 407.68C460.231 413.04 455.227 416.37 450.223 415.12L448.412 414.67V392.63V392.62Z" fill="#B3B3B3"/>
</g>
<path d="M426.817 394.744L426.489 396.244C425.321 401.6 428.429 406.957 433.428 408.208L446.219 411.409C451.219 412.661 456.22 409.332 457.388 403.976L457.716 402.477C458.884 397.121 455.776 391.763 450.777 390.512L437.986 387.311C432.986 386.06 427.985 389.388 426.817 394.744Z" fill="#F1BE98"/>
<path d="M523.562 524.25V435.39L513.517 404.08C511.155 395.48 515.748 386.46 523.777 383.94L525.672 383.34C528.034 382.6 530.508 384.04 531.208 386.57L533.915 398.4L544.249 418.32C548.917 427.32 551.456 437.4 551.643 447.69L552.521 495C552.791 509.54 559.644 523.03 570.883 531.17L735.252 627.33V690.93H637.977L522.003 555.8C511.977 544.76 507.543 540.19 497.824 536.62L488.946 533.36H514.759C514.759 533.36 523.572 532.61 523.572 524.24L523.562 524.25Z" fill="#F1BE98"/>
<path d="M544.632 564.85C568.69 589.69 621.565 656.19 653.446 690.93H637.968L521.994 555.8C511.968 544.76 507.533 540.19 497.815 536.62L488.937 533.36H491.785C498.814 533.81 518.362 537.72 544.623 564.84L544.632 564.85Z" fill="#EAB18B"/>
<path d="M544.24 418.33C548.908 427.33 551.447 437.41 551.634 447.7L552.511 495.01C552.782 509.55 559.634 523.04 570.874 531.18L735.252 627.33V637.87C692.813 613.84 583.766 551.53 568.325 537.04C549.085 518.98 546.257 509.58 546.257 492.35C546.257 475.12 545.351 458.21 546.219 440.93C547.078 423.65 533.915 398.41 533.915 398.41L544.249 418.33H544.24Z" fill="#F4CDB3"/>
<g style="mix-blend-mode:color-burn">
<path d="M512.901 402.44C512.901 402.44 519.212 427.84 519.212 442.65V517.18C519.212 519.75 521.163 521.84 523.562 521.84V435.39L512.892 402.44H512.901Z" fill="#B3B3B3"/>
</g>
</g>
<path d="M488.496 312.811L487.061 312.713C481.937 312.36 477.515 316.524 477.185 322.013L476.91 326.603C476.58 332.092 480.468 336.829 485.592 337.182L487.026 337.281C492.15 337.634 496.573 333.469 496.902 327.981L497.178 323.39C497.507 317.901 493.62 313.164 488.496 312.811Z" fill="#F1BE98"/>
<defs>
<filter id="filter0_f_12_584" x="0" y="0" width="892" height="887" filterUnits="userSpaceOnUse" color-interpolation-filters="sRGB">
<feFlood flood-opacity="0" result="BackgroundImageFix"/>
<feBlend mode="normal" in="SourceGraphic" in2="BackgroundImageFix" result="shape"/>
<feGaussianBlur stdDeviation="100" result="effect1_foregroundBlur_12_584"/>
</filter>
</defs>
</svg>
