<svg width="3712" height="3118" viewBox="0 0 3712 3118" fill="none" xmlns="http://www.w3.org/2000/svg">
<g opacity="0.6" clip-path="url(#clip0_14_675)">
<path d="M5008.53 9411.17L4521.71 9343.92L4015.27 9373.39L3490.61 9401.63L3223 9407.22L2952.76 9406.46L2679.9 9372.25L2407.23 9403.27L2131.29 9380.68L1856.34 9388.71L1580.29 9365.67L1305.72 9407.41L1304.92 9407.3L1031.03 9361.14L759.653 9364.45L489.341 9356.13L222.945 9402.81L-302.699 9385.82L-809.977 9382.36L-1295.92 9372.82L-1755.82 9375.89L-2186.03 9351.76L-2581.17 9353.62L-2937.19 9404.6L-3251.65 9397.45L-3517.74 9400.22L-4012.97 9365.82L-4067.8 8927.55L-4043.65 8690.83L-4017.49 8413.4L-4031.14 8098.53L-3991.79 7747.88L-4040.08 7368.72L-4042.93 6961.13L-4035.51 6531.14L-4016.43 6082.08L-4009.24 5618.07L-4034.64 5382.08L-4013.35 5142.09L-4038.78 4902.18L-4050.08 4659.57L-4015.1 4416.24L-4065.14 4172.53L-4035.59 3927.98L-4026.31 3685.1L-4004.37 3442.53L-4028.97 3202.58L-4033.5 2963.2L-4036.28 2726.56L-3994.6 2261.87L-4067.42 1813.49L-4067.34 1812.84L-4024.98 1382.97L-3993.04 976.065L-4056.01 596.26L-4055.93 595.576L-4021.07 245.689L-4055.55 -68.8441L-4022.81 -347.453L-4015.59 -582.574L-4049.47 -1053.61L-3518.01 -1001.65L-3252.45 -1050.88L-2937.8 -1044.26L-2580.83 -1016.25L-2186.03 -1033.88L-1755.82 -1024.91L-1296.11 -1045.86L-810.167 -1060.23L-302.585 -1056.12L221.918 -1066.35L490.253 -1021.26L759.387 -1029.17L1031.56 -1040.84L1305.91 -1067.72L1306.63 -1067.56L1581.58 -1016.66L1855.77 -1002.67L2131.56 -1061.06L2406.59 -1014.95L2680.44 -1067.26L2681.31 -1067.11L2952.76 -1023.09L3222.7 -1069.85L3223.38 -1069.77L3490.84 -1044.07L4015.04 -1036.39L4522.66 -1004.42L5007.54 -1067.41L5468.39 -1052.97L5898.33 -1034.04L6294.01 -999.176L6649.87 -1027.73L6963.61 -998.758L7229.82 -1052.09L7230.5 -1052.02L7718.12 -1014.84L7774.47 -582.992L7758.96 -346.465L7777.55 -69.6424L7756.91 246.601L7778.66 595.842L7718.35 977.281L7742.68 1383.2L7752.57 1813.26L7707.85 2262.78L7761.54 2725.88L7737.59 2963.58L7711.16 3201.94L7749.34 3442.15L7754.02 3685.14L7719.64 3929.19L7724.47 4172.15L7746.45 4415.55L7760.63 4659.72L7760.44 4660.44L7702.61 4901.42L7779.11 5142.39L7778.73 5143.8L7714.55 5381.58L7770.25 5617.77L7770.18 5618.6L7724.36 6082.76L7706.79 6531.41L7725.31 6960.86L7704.17 7368.34L7724.32 7748.18L7763.37 8097.77L7743.37 8414.24L7777.36 8691.67L7777.17 8692.51L7724.09 8928.08L7712.19 9353.69L7230.61 9405.36L6963.91 9409.99L6650.1 9404.41L6293.36 9393.12L5897.87 9379.51L5468.24 9385.82L5008.38 9411.21L5008.53 9411.17ZM4522.09 9333.96L5008.91 9401.21L5468.01 9375.74L5898.1 9369.43L6293.82 9383.04L6650.48 9394.33L6964.03 9399.92L7230.12 9395.28L7702.49 9344.57L7714.28 8926.75L7767.32 8691.06L7733.48 8414.43L7753.48 8097.92L7714.39 7748.91L7694.2 7368.26L7715.35 6960.71L7696.83 6531.3L7714.39 6081.96L7760.14 5618.34L7704.24 5381.32L7768.69 5142.51L7692.23 4901.68L7692.57 4900.32L7750.55 4658.7L7736.49 4416.16L7714.51 4172.56L7709.72 3928.47L7744.05 3684.42L7739.41 3442.87L7701.09 3202.01L7701.16 3201.33L7727.67 2962.33L7751.62 2725.76L7697.93 2262.67L7742.57 1812.69L7732.68 1383.43L7708.42 976.597L7768.77 595.158L7746.94 246.373L7767.59 -69.8324L7749 -346.655L7764.55 -582.878L7709.26 -1005.68L7230.46 -1042.21L6964.18 -988.836L6649.84 -1017.92L6294.01 -989.369L5897.72 -1024.19L5468.05 -1043.08L5008.07 -1057.57L4523 -994.577L4014.62 -1026.51L3490.23 -1034.23L3223.08 -1059.89L2952.8 -1013.05L2951.96 -1013.2L2680.59 -1057.22L2406.7 -1004.92L2131.79 -1050.99L1856.57 -992.714H1855.92L1580.44 -1006.86L1305.53 -1057.72L1032.32 -1030.96L759.767 -1019.29L489.569 -1011.42L221.195 -1056.5L-302.509 -1046.24L-810.015 -1050.34L-1295.7 -1035.97L-1755.63 -1015.03L-2185.88 -1024L-2580.98 -1006.36L-2938.29 -1034.38L-3251.65 -1041.07L-3517.59 -991.65L-4038.59 -1042.48L-4005.63 -582.764L-4012.85 -346.693L-4045.63 -68.768L-4011.14 245.689L-4045.93 595.956L-3983.16 975.646L-4015.06 1383.85L-4057.38 1813.18L-3984.71 2261.45L-4026.35 2726.87L-4023.54 2962.98L-4019.05 3201.94L-3994.49 3442.42L-4016.43 3685.71L-4025.74 3928.74L-4055.14 4172.07L-4005.06 4415.9L-4005.21 4416.77L-4040.27 4660.03L-4028.94 4901.38L-4003.54 5141.98L-4024.83 5381.92L-3999.43 5617.54L-4006.58 6082.31L-4025.67 6531.37L-4033.08 6961.13L-4030.27 7368L-3982.01 7747.77L-4021.33 8098.83L-4007.64 8413.63L-4033.8 8691.78L-4057.99 8927.4L-4004.18 9356.32L-3517.59 9390.11L-3251.73 9387.34L-2937.91 9394.56L-2582.05 9343.58L-2185.95 9341.68L-1755.75 9365.82L-1296.04 9362.74L-810.015 9372.28L-302.699 9375.74L222.07 9392.81L488.466 9346.13L759.615 9354.38L1031.68 9351.15L1305.68 9397.22L1579.83 9355.67L1856.49 9378.63L2131.45 9370.61L2406.93 9393.23L2679.83 9362.25L2953.3 9396.46L3222.81 9397.18L3490.12 9391.63L4014.55 9363.39L4521.94 9333.96H4522.09Z" fill="url(#paint0_linear_14_675)"/>
<path d="M-809.636 3010L-1296.08 2985.6L-1756.21 2955.03L-2185.69 2959.48L-2581.36 2946.36L-2937.23 2994.11L-3251.46 2996.54L-3517.97 2942.49L-4022.44 2999.51L-4023.58 2989.55L-3517.55 2932.34L-3516.75 2932.49L-3250.51 2986.62L-2937.91 2984.11L-2581.86 2936.4L-2185.61 2949.44L-1755.9 2945.03L-1295.51 2975.6L-809.712 2999.96L-302.89 2968.37L222.145 2976.09L489.606 2947.73L490.29 2947.85L759.767 2992.17L1031.37 2964L1306.32 2995.55L1580.29 2970.5L1856.42 2943.59L1857.06 2943.7L2132.55 2990.8L2406.7 2993.2L2680.36 2982.36L2952.19 2947.69L3222.85 2942.56L3491.07 2979.32L4014.62 2939.29L4522.43 2943.93L5008.68 2983.16L5468.35 2986.89L5898.1 2978.41L6293.74 2934.28L6294.39 2934.39L6651.09 2989.4L6964.1 2999.77L7229.4 2958.07L7735.34 2945.98L7735.57 2956.02L7230.31 2968.03L6964.71 3009.73L6650.14 2999.36L6293.51 2944.39L5898.75 2988.41L5468.39 2996.92L5008.23 2993.2L4521.98 2953.93L4014.96 2949.29L3490.73 2989.28L3222.24 2952.56L2952.91 2957.65L2681.2 2992.36L2406.89 3003.2L2131.67 3000.76L1856.04 2953.7L1581.2 2980.5L1306.21 3005.52L1031.3 2973.96L759.462 3002.28L758.778 3002.17L489.34 2957.84L222.601 2986.09L-302.662 2978.37L-809.636 3010Z" fill="url(#paint1_linear_14_675)"/>
<path d="M-302.091 2742.99L-810.015 2736.41L-1296.08 2712.04L-1755.75 2722.15L-2186.22 2682.24L-2580.75 2716.18L-2938.33 2684.37L-3251 2716.22L-3518.24 2692.46L-4023.04 2688.74L-4022.97 2678.7L-3517.74 2682.47L-3251.08 2706.23L-2938.37 2674.37L-2580.75 2706.19L-2186.18 2672.24L-1755.41 2712.12L-1295.96 2702.04L-809.711 2726.37L-302.509 2732.99L221.575 2681.1L489.683 2692.69L759.92 2709.49L1031.87 2667.83L1306.48 2707.56L1580.97 2720.75L1856.23 2678.02L2132.51 2722.76L2406.28 2700.86L2680.59 2702.88L2952.92 2707.1L3223.04 2674.63L3223.72 2674.75L3491.14 2715.73L4015.04 2722.46L4521.86 2669.39L5008.57 2699.27L5468.54 2720.4L5897.68 2678.51L6293.82 2693.26L6650.75 2723.48L6963.84 2717.74L7229.85 2698.47L7735.38 2692.16L7735.5 2702.2L7230.27 2708.51L6964.3 2727.74L6650.41 2733.48L6293.21 2703.26L5897.99 2688.51L5468.81 2730.4L5008.04 2709.27L4522.09 2679.39L4015.53 2732.45L3490.31 2725.69L3222.85 2684.75L2953.45 2717.06L2680.47 2712.92L2406.62 2710.86L2132.13 2732.72L1856.19 2688.17L1581.5 2730.71L1305.53 2717.52L1031.91 2677.98L760.376 2719.42L489.188 2702.69L221.842 2691.1L-302.091 2742.99Z" fill="url(#paint2_linear_14_675)"/>
<path d="M2406.97 2477.91L2406.02 2477.79L2131.06 2441.3L1856.04 2430.66L1580.86 2437.01L1305.79 2475.25L1305.18 2475.17L1031.3 2442.37L760.071 2468.37L488.808 2431.15L222.184 2436.28L-302.205 2473.84L-810.282 2440.5L-1295.51 2471.33L-1756.43 2419.33L-2185.27 2461.56L-2581.67 2423.43L-2938.07 2409.86L-3251.54 2408.57L-3517.48 2461.3L-4023.42 2419.67L-4022.59 2409.71L-3518.08 2451.18L-3252.49 2398.65L-2937.88 2399.83L-2580.98 2413.44L-2185.27 2451.56L-1756.36 2409.37L-1295.28 2461.33L-810.282 2430.47L-302.243 2463.84L221.727 2426.29L489.378 2421.19L760.299 2458.41L1031.41 2432.41L1305.72 2465.14L1580.02 2427.01L1856.11 2420.62L2131.9 2431.34L2406.4 2467.72L2680.55 2399.79L2953.03 2466.88L3222.12 2422.6L3490.35 2420.16L4015.12 2435.33L4522.66 2462.21L5008.19 2455.25L5468.2 2446.09L5897.76 2409.44L6293.82 2423.78L6650.22 2417.39L6964.3 2440.81L7229.82 2420.28L7735.46 2420.66V2430.66L7230.2 2430.28L6964.33 2450.8L6649.95 2427.39L6293.74 2433.77L5898.03 2419.48L5468.74 2456.09L5008.34 2465.25L4522.47 2472.21L4014.74 2445.33L3490.23 2430.2L3222.96 2432.56L2952.61 2477.11L2680.55 2410.09L2406.97 2477.91Z" fill="url(#paint3_linear_14_675)"/>
<path d="M-1295.62 2207.55L-1756.36 2163.11L-2185.27 2206.79L-2581.48 2185.58L-2938.52 2141.02L-3251.5 2141.59L-3517.48 2201.35L-3518.27 2201.24L-4023.5 2150.49L-4022.51 2140.53L-3518.08 2191.2L-3252.6 2131.71L-2937.88 2131.06L-2580.57 2175.58L-2185.5 2196.79L-1756.36 2153.15L-1295.35 2197.55L-810.168 2176.11L-302.89 2142.13L222.221 2158.51L489.568 2163.87L760.185 2194.24L1031.49 2174.25L1305.45 2155.96L1580.67 2194.55L1856.11 2149.92L1856.83 2149.99L2132.36 2184.59L2406.17 2155.7L2680.32 2193.29L2952.42 2133.12L3223.23 2148.06L3491.07 2185.54L4014.81 2165.85L4522.35 2159.73L5008 2133.19L5468.58 2159.23L5898.44 2182.69L6293.7 2188.58L6650.1 2171.78L6963.38 2135.59L7230.46 2150.18L7735.61 2168.05L7735.27 2178.05L7230.01 2160.18L6963.65 2145.58L6650.9 2181.74L6293.86 2198.62L5898.1 2192.69L5468.01 2169.23L5008 2143.19L4522.66 2169.76L4015.04 2175.88L3490.57 2195.54L3222.24 2158.05L2953.22 2143.19L2680.78 2203.48L2679.86 2203.33L2405.98 2165.66L2132.24 2194.55L1856.3 2160.03L1580.78 2204.7L1305.07 2165.92L1032.21 2184.25L759.957 2204.24L488.922 2173.87L221.955 2168.51L-302.738 2152.12L-809.636 2186.11L-1295.62 2207.55Z" fill="url(#paint4_linear_14_675)"/>
<path d="M-2937.42 1944.07L-3252.26 1898.22L-3517.25 1925.37L-4023.27 1900.5L-4022.74 1890.51L-3517.51 1915.37L-3252.03 1888.26L-2937.15 1934.11L-2581.63 1902.14L-2185.42 1930.16L-1755.98 1921.6L-1295.81 1924.49L-810.548 1865.76L-302.32 1891.34L222.45 1931.26L489.378 1925.97L759.425 1916.2L1032.02 1882.98L1305.79 1930.88L1579.91 1886.21L1856 1874.2L2131.98 1888.49L2406.89 1898.72L2680.28 1921.41L2952.57 1871.35L3223.38 1894.35L3489.93 1869.71L4015.04 1876.4L4522.51 1886.82L5008.72 1931.64L5467.9 1895.68L5898.6 1931.52L6293.66 1864.73L6294.54 1864.89L6651.24 1930.76L6963.76 1918.3L7229.93 1870.44L7230.58 1870.47L7735.84 1908.6L7735.08 1918.6L7230.46 1880.55L6964.83 1928.26L6650.52 1940.72L6293.59 1874.92L5899.01 1941.45L5467.9 1905.64L5008.64 1941.64L4521.94 1896.86L4014.89 1886.44L3490.31 1879.71L3223.38 1904.31L2953.07 1881.46L2680.82 1931.52L2680.13 1931.45L2406.28 1908.72L2131.52 1898.49L1855.96 1884.2L1580.93 1896.17L1305.72 1941.03L1304.92 1940.88L1031.71 1893.13L760.223 1926.2L489.644 1936.01L222.184 1941.29L-302.928 1901.34L-810.206 1875.76L-1295.24 1934.49L-1755.9 1931.64L-2185.65 1940.19L-2581.55 1912.14L-2937.42 1944.07Z" fill="url(#paint5_linear_14_675)"/>
<path d="M1856.38 1676.9L1580.44 1661.89L1304.92 1614.75L1031.98 1621.25L759.348 1608.51L489.834 1627.83L222.221 1636.26L-302.205 1674.62L-810.282 1641.74L-1296.11 1613.27L-1755.33 1661.89L-2186.14 1630.3L-2580.87 1656.83L-2937.76 1663.56L-3251.73 1650.9L-3518.43 1616.04L-4022.55 1662.27L-4023.46 1652.27L-3518.24 1606.04L-3250.85 1640.94L-2937.69 1653.52L-2581.29 1646.83L-2186.1 1620.3L-1755.48 1651.89L-1296.38 1603.27L-809.674 1631.74L-302.243 1664.59L221.689 1626.27L489.34 1617.83L759.234 1598.52L1032.09 1611.21L1305.64 1604.79L1581.58 1651.93L1856.49 1666.9L2131.56 1658.12L2406.32 1638.89L2680.74 1603.27L2953.83 1658.66L3222.69 1645.73L3490 1626L4015.31 1659.57L4522.09 1627.9L5008.19 1622.92L5468.43 1635.2L5898.18 1635.24L6293.66 1638.85L6650.06 1620.26L6963.61 1600L7230.84 1634.82L7735.23 1611.4L7735.69 1621.4L7230.42 1644.78L6963.31 1610L6650.63 1630.26L6293.89 1648.89L5898.14 1645.27L5468.32 1645.24L5008.11 1632.96L4522.47 1637.9L4015.31 1669.57L3490.04 1636L3223.3 1655.77L2953.07 1668.58L2680.36 1613.46L2407.31 1648.85L2132.09 1668.12L1856.38 1676.9Z" fill="url(#paint6_linear_14_675)"/>
<path d="M-2937.42 1407.11L-3252.11 1368.95L-3517.32 1391.87L-4023.2 1373.77L-4022.81 1363.74L-3517.59 1381.87L-3251.95 1358.99L-2937.27 1397.12L-2581.63 1365.6L-2186.03 1345.87L-1755.63 1365.72L-1296 1349.14L-809.673 1375.37L-302.395 1392.86L222.26 1338.23L490.329 1384.49L759.691 1389.82L1031.45 1367.54L1305.41 1348.65L1580.82 1353.82L1856.68 1378.64L2131.48 1365.87L2406.81 1336.79L2407.5 1336.9L2680.66 1381.8L2952.23 1349.86L3223.3 1370.47L3489.66 1332.26L4015.31 1362.22L4522.55 1377.96L5008.45 1396.24L5467.67 1335.84L5898.37 1353.28L6294.12 1391.64L6649.95 1364.58L6964.37 1391.38L7230.27 1395.06L7734.89 1339.37L7735.99 1349.33L7230.73 1405.06L6963.88 1401.37L6649.87 1374.57L6294.01 1401.64L5897.68 1363.28L5468.13 1345.83L5008.91 1406.24L4522.2 1387.99L4014.85 1372.22L3490.08 1342.22L3223.65 1380.43L2952.42 1359.86L2680.44 1391.95L2406.55 1346.9L2132.24 1375.83L1856.46 1388.64L1580.29 1363.81L1305.68 1358.68L1032.21 1377.54L759.996 1399.81L489.379 1394.45L221.88 1348.34L-302.053 1402.86L-810.129 1385.41L-1296.11 1359.14L-1755.67 1375.71L-2185.99 1355.87L-2580.95 1375.6L-2937.42 1407.11Z" fill="url(#paint7_linear_14_675)"/>
<path d="M3490.38 1144.24L3222.85 1139.3L2952.76 1092.66L2681.27 1132.42L2406.32 1112.8L2131.44 1138.31L2130.76 1138.16L1856.11 1083.34L1580.67 1124.59L1579.91 1124.47L1304.96 1079.62L1032.21 1099.42L759.501 1092.54L489.455 1134.13L221.88 1088.4L-302.053 1142.87L-810.053 1131.73L-1296 1114.86L-1755.79 1119.42L-2185.53 1138.24L-2581.48 1115.58L-2937.84 1118.2L-3251.69 1108.62L-3518.27 1082.24L-4022.78 1105.96L-4023.23 1095.96L-3518.01 1072.24L-3251.04 1098.62L-2937.72 1108.2L-2581.21 1105.54L-2185.46 1128.24L-1756.09 1109.38L-1295.89 1104.86L-809.787 1121.7L-302.471 1132.88L222.222 1078.29L489.531 1123.94L758.855 1082.58L1032.02 1089.42L1305.41 1069.69L1580.74 1114.44L1856.34 1073.15L1857.22 1073.34L2131.98 1128.2L2406.21 1102.81L2680.89 1122.46L2952.88 1082.51L3223.8 1129.34L3490.46 1134.21L4014.96 1132.65L4521.94 1085.62L5008.15 1074.9L5468.62 1104.36L5898.41 1123.3L6293.1 1081.67L6650.22 1072.85L6963.91 1122.57L7229.36 1078.29L7735.73 1106.15L7735.16 1116.19L7229.93 1088.25L6963.95 1132.72L6649.53 1082.81L6293.74 1091.67L5898.71 1133.29L5468.09 1114.4L5007.96 1084.9L4522.51 1095.62L4015.46 1142.64L3490.38 1144.24Z" fill="url(#paint8_linear_14_675)"/>
<path d="M2952.72 873.577L2952.08 873.463L2679.79 831.115L2406.7 831.875L2132.01 807.698L1856.53 862.363L1580.32 839.516L1306.25 865.632L1031.49 845.637L759.387 834.042L489.226 820.775L222.184 827.542L-302.7 813.932L-809.674 843.165L-1296.15 813.704L-1755.44 852.175L-2186.07 825.109L-2581.33 815.985L-2937.95 810.625L-3251.23 828.872L-3518.05 814.16L-4022.51 863.922L-4023.5 853.924L-3518.27 804.163L-3251.23 818.874L-2938.18 800.627L-2581.1 805.949L-2185.65 815.111L-1755.56 842.177L-1296.23 803.706L-809.636 833.168L-302.852 803.934L222.222 817.544L489.378 810.739L759.843 824.044L1032.09 835.639L1306.13 855.634L1580.25 829.518L1855.92 852.289L2131.44 797.624L2132.17 797.662L2407.12 821.877L2680.55 821.155L2952.95 863.465L3222.39 833.32L3489.78 801.235L4015.12 814.997L4522.74 849.514L5007.73 798.992L5468.85 847.195L5898.29 855.862L6293.7 862.325L6649.46 800.551L6964.14 812.222L7231.03 858.105L7735.12 824.158L7735.76 834.156L7230.54 868.027L6963.12 822.181L6650.14 810.511L6294.5 872.285L5898.1 865.86L5468.2 857.193L5007.73 808.99L4522.93 859.512L4014.66 824.994L3490.23 811.233L3223.53 843.28L2952.72 873.577Z" fill="url(#paint9_linear_14_675)"/>
<path d="M1306.63 610.478L1031.68 600.784L759.311 546.385L489.949 570.752L221.613 545.777L-302.205 585.122L-809.863 592.763L-1296.04 572.197L-1755.9 568.89L-2185.99 550.605L-2580.49 605.422L-2937.88 605.118L-3252.03 572.159L-3518.01 559.728L-4023.2 542.393L-4022.81 532.396L-3517.59 549.73L-3251.27 562.161L-2937.34 595.12L-2581.17 595.424L-2186.45 540.645L-1755.63 558.892L-1295.81 562.161L-809.749 582.765L-302.661 575.124L221.689 535.779L489.949 560.755L759.881 536.273L760.565 536.425L1032.86 590.824L1305.94 600.518L1579.87 552.961L1856.34 559.576L2131.9 534.638L2132.55 534.752L2407.54 581.739L2680.32 570.296L2952.88 573.87L3222.39 544.56L3490.8 567.977L4015.23 593.181L4522.13 565.734L5008.61 599.872L5468.28 596.602L5897.68 552.924L6293.93 578.051L6650.14 565.886L6963.61 545.815L7230.08 540.112L7735.95 589.266L7734.96 599.225L7229.7 550.11L6964.03 555.851L6650.63 575.884L6293.82 588.049L5897.87 562.921L5468.81 606.6L5008.3 609.907L4522.05 575.732L4015.27 603.217L3490.16 577.975L3222.51 554.558L2953.37 583.829L2680.51 580.294L2406.89 591.698L2131.52 544.75L1856.68 569.574L1580.59 562.921L1306.63 610.478Z" fill="url(#paint10_linear_14_675)"/>
<path d="M489.607 344.566L221.651 322.745L-302.548 327.383L-810.282 292.714L-1295.85 293.094L-1755.44 332.325L-2186.33 281.461L-2580.87 306.323L-2937.65 322.023L-3251.38 275.949L-3517.44 329.816L-3518.08 329.778L-4023.31 300.849L-4022.7 290.851L-3518.12 319.704L-3251.65 265.761L-2937.15 312.063L-2581.4 296.325L-2186.07 271.501L-1755.25 322.327L-1296.27 283.058L-809.94 282.678L-302.243 317.385L222.032 312.747L489.911 334.53L759.463 326.623L1031.56 310.733L1305.26 284.388L1580.59 318.298L1856.23 271.045L2132.55 317.499L2406.47 305.981L2680.17 285.833L2953.41 316.929L3222.77 308.832L3489.93 286.251L4014.89 276.177L4522.77 315.712L5008.38 327.459L5468.16 315.56L5898.1 307.159L6293.7 311.227L6650.25 307.539L6963.99 311.721L7229.36 266.56L7735.46 269.411L7735.42 279.408L7230.16 276.519L6964.79 321.681L6650.25 317.575L6293.7 321.263L5898.14 317.195L5468.39 325.558L5008.38 337.457L4522.28 325.71L4014.62 286.175L3490.46 296.249L3223.38 318.83L2952.99 326.927L2679.98 295.793L2407.04 316.017L2131.94 327.459L1856.23 281.195L1580.86 328.409L1305.15 294.348L1032.32 320.73L759.881 336.62L489.607 344.566Z" fill="url(#paint11_linear_14_675)"/>
<path d="M6293.86 75.1937L6293.17 75.1178L5897.72 38.8518L5468.47 53.3734L5007.85 14.4084L4522.39 13.42L4015.53 69.7577L3489.93 21.9732L3222.89 62.1548L3222.09 62.0027L2952.84 15.0166L2680.7 64.1315L2679.94 64.0174L2406.05 30.1083L2132.09 49.876L1856.53 67.4387L1580.48 53.9816L1305.87 23.3798L1031.98 64.6637L1031.3 64.6257L759.045 33.3396L489.493 67.2107L221.462 33.2255L-302.699 19.3883L-809.445 70.9741L-1296.34 21.8592L-1755.86 22.1633L-2185.84 17.7536L-2581.1 25.7367L-2937.42 57.3268L-3251.8 39.1179L-3517.67 44.8201L-4022.89 56.9087L-4023.12 46.8728L-3517.89 34.7842L-3251.61 29.12L-2937.57 47.3291L-2581.63 15.7009L-2185.88 7.71775L-1755.79 12.1275L-1295.85 11.8613L-809.445 60.9763L-303.079 9.39041L222.222 23.2657L489.493 57.1368L758.969 23.3798L1031.79 54.5898L1305.68 13.2679L1306.32 13.344L1581.28 44.0217L1856.46 57.4029L2131.41 39.8781L2406.32 20.1485L2680.44 53.9816L2952.8 4.8286L2953.68 4.98069L3223 51.9667L3489.62 12.0134L4015.46 59.7979L4521.86 3.42208L5008.26 4.4105L5468.74 43.3755L5898.03 28.8158L6293.44 65.0818L6650.25 2.50977L6651.02 2.58575L6964.64 47.6331L7229.82 28.0556L7735.54 38.6997L7735.35 48.7356L7230.08 38.0914L6964.3 57.5929L6650.41 12.6217L6293.86 75.1937Z" fill="url(#paint12_linear_14_675)"/>
<path d="M3710.58 9374.56L3700.62 9373.27L3758.83 8927.06L3713.24 8692.28L3681.83 8413.52L3682.06 8412.6L3761.49 8097.81L3737.54 7748.75L3720.89 7368.27L3693.81 6961.36L3684.84 6531.26L3710.05 6081.93L3706.21 5618.11L3691.61 5381.77L3731.19 5141.63L3722.29 4901.76L3692.18 4659.87L3693.13 4414.72L3757.01 4171.77L3740.62 3928.81L3700.47 3686.01L3721.23 3442.45L3749.17 3201.4L3732.29 2963.36L3726.25 2726.53L3695.94 2262.56L3689.36 1813.38L3737.54 1382.86L3717.08 976.673L3729.82 595.918L3682.33 246.069L3743.81 -70.3264L3738.53 -346.769L3735.22 -582.346L3702.37 -1029.09L3712.37 -1029.82L3745.22 -582.802L3748.53 -346.921L3753.74 -69.4901L3692.48 246.336L3739.82 595.386L3727.08 976.597L3747.54 1383.16L3699.32 1813.87L3705.94 2262.14L3736.25 2726.07L3742.33 2962.9L3759.14 3201.63L3731.19 3443.44L3710.39 3685.63L3750.54 3927.67L3767.12 4172.72L3766.89 4173.51L3703.01 4416.62L3702.18 4659.27L3732.29 4900.96L3741.15 5142.28L3701.57 5382.27L3716.21 5617.77L3720.09 6082.19L3694.88 6531.45L3703.81 6960.9L3730.89 7367.7L3747.54 7748.18L3771.61 8098.72L3692.02 8414.2L3723.13 8690.76L3768.99 8926.75L3768.91 8927.55L3710.58 9374.56Z" fill="url(#paint13_linear_14_675)"/>
<path d="M3440.69 9374.45L3430.72 9373.39L3478.71 8927.06L3436.88 8691.56L3436.96 8690.91L3460.42 8413.44L3442.82 8098.53L3442.74 7748.37L3459.7 7367.81L3434.03 6961.36L3465.94 6530.77L3488.45 6081.96L3473.69 5618.22L3415.86 5381.47L3416.16 5380.25L3475.21 5142.36L3425.52 4902.6L3421.68 4659.34L3445.17 4415.52L3432.32 4172.49L3426.54 3927.9L3426.73 3927.26L3488.33 3684.68L3476.62 3443.14L3489.32 3201.71L3456.89 2963.7L3480.27 2725.92L3477.76 2262.25L3480.31 1813.3L3452.28 1383.77L3438.94 976.597L3484.34 595.462L3445.02 246.754L3464.68 -69.6802L3422.89 -346.845L3423.01 -347.567L3456.09 -583.106L3422.66 -1029.09L3432.66 -1029.82L3466.05 -582.802L3433.01 -346.883L3474.64 -70.0983L3454.98 246.526L3494.3 595.538L3448.94 977.015L3462.28 1383.28L3490.35 1813L3487.8 2262.25L3490.27 2726.37L3466.89 2963.51L3499.32 3201.33L3486.62 3443.14L3498.41 3685.71L3498.22 3686.43L3436.62 3929.04L3442.36 4172.11L3455.21 4415.71L3431.68 4659.72L3435.44 4901.5L3485.48 5142.55L3426.2 5381.47L3483.58 5616.89L3498.45 6082.08L3475.94 6531.41L3444.03 6961.39L3469.7 7367.73L3452.78 7748.6L3452.82 8098.26L3470.42 8413.55L3447 8691.1L3488.79 8926.71L3488.75 8927.44L3440.69 9374.45Z" fill="url(#paint14_linear_14_675)"/>
<path d="M3164.71 9374.07L3150.98 8927.06L3194.1 8690.42L3190.38 8413.9L3216.57 8097.84L3224.56 7748.26L3196.95 7368.42L3157.45 6961.51L3207.22 6530.57L3186.34 6082.46L3219.12 5617.73L3186.46 5382.15L3192.62 5142.36L3164.67 4902.14L3149.08 4659.57L3166.15 4415.63L3219.88 4172.37L3150.41 3928.55L3150.75 3927.22L3213.68 3685.18L3154.59 3443.25L3154.67 3442.38L3179.31 3201.48L3158.47 2963.43L3175.39 2726.07L3176.53 2262.21L3182.31 1813.26L3187.14 1383.39L3202.58 976.217L3185.58 596.298L3202.2 245.955L3177.18 -68.9581L3191.25 -347.111L3205.58 -582.726L3165.05 -1029.02L3175.05 -1029.89L3215.58 -582.878L3201.29 -346.541L3187.18 -69.1101L3212.24 245.803L3195.62 596.298L3212.62 976.179L3197.18 1383.62L3192.35 1813.38L3186.57 2262.29L3185.43 2726.41L3168.47 2963.36L3189.31 3201.56L3164.75 3442.53L3224.03 3685.25L3223.72 3686.47L3160.79 3928.43L3230.22 4172.07L3176.04 4417.07L3159.08 4659.61L3174.67 4901.27L3202.62 5141.9L3196.46 5381.58L3229.08 5617.39L3196.35 6082.57L3217.22 6530.92L3167.41 6961.62L3206.95 7367.54L3234.56 7748.03L3226.57 8098.38L3200.41 8414.24L3204.03 8691.25L3160.94 8927.82L3174.75 9373.77L3164.71 9374.07Z" fill="url(#paint15_linear_14_675)"/>
<path d="M2930.1 9374.34L2891.58 8926.49L2891.81 8925.65L2951.17 8690.91L2926.53 8414.28L2901.2 8098.68L2915.2 7748.18L2948.12 7367.62L2912.95 6961.47L2897.17 6531.33L2897.44 6082.23L2954.4 5618.41L2892.46 5381.73L2892.61 5380.75L2927.29 5142.47L2890.44 4902.33L2880.4 4659.46L2913.75 4415.29L2918.58 4172.15L2888.88 3929.08L2894.66 3685.1L2907.82 3442.61L2929.61 3201.56L2904.09 2963.55L2882.57 2726.87L2946.41 2261.53L2944.93 1813.34L2956.26 1383.32L2896.72 976.482L2896.79 975.874L2939.57 595.538L2926.41 246.373L2908.12 -69.0725L2918.39 -347.036L2887.86 -582.46L2887.97 -583.145L2953.33 -1030.2L2963.26 -1028.71L2897.97 -582.384L2928.39 -347.492L2918.16 -69.1866L2936.41 245.917L2949.57 595.88L2906.83 976.33L2966.22 1382.71L2954.97 1813.45L2956.38 2262.21L2892.57 2727.09L2914.05 2962.56L2939.61 3201.48L2917.82 3443.33L2904.66 3685.48L2898.88 3928.59L2928.54 4171.61L2923.75 4416.09L2890.37 4659.95L2900.4 4901.38L2937.44 5142.43L2937.33 5143.19L2902.69 5381.16L2964.59 5617.73L2907.44 6082.84L2907.17 6531.14L2922.95 6960.82L2958.12 7367.62L2925.2 7748.83L2911.24 8098.45L2936.53 8413.44L2961.32 8691.71L2961.09 8692.54L2901.74 8927.32L2940.06 9373.5L2930.1 9374.34Z" fill="url(#paint16_linear_14_675)"/>
<path d="M2651.42 9374.37L2641.42 9373.46L2683.59 8927.17L2636.1 8691.67V8691.02L2652.03 8413.55L2648.84 8098.3L2625.79 7748.72L2633.44 7367.92L2640.93 6960.94L2689.94 6531.22L2623.66 6082.27L2623.74 6081.58L2683.78 5618.19L2642.22 5382.34L2647.81 5142.36L2622.11 4902.1L2640.74 4658.89L2647.39 4415.86L2669.14 4172.49L2620.93 3928.43L2621.12 3927.41L2674.35 3684.15L2677.39 3442.84L2662.07 3202.32L2682.53 2962.6L2680.05 2726.45L2649.98 2262.56L2619.71 1813.64L2658.49 1382.97L2682.6 976.141L2687.51 595.994L2644.73 246.792L2621.8 -69.7181L2621.95 -70.4404L2681.8 -347.035L2645.91 -581.661L2634.77 -1029.32L2644.81 -1029.59L2655.87 -582.574L2691.99 -346.693L2631.92 -69.0339L2654.69 245.841L2697.51 595.462L2692.6 976.483L2668.49 1383.73L2629.71 1813.76L2659.94 2261.91L2690.05 2726.07L2692.53 2962.98L2672.07 3202.43L2687.39 3442.57L2684.27 3685.29L2631.16 3928.51L2679.26 4171.96L2679.22 4172.68L2657.39 4416.43L2650.74 4659.38L2632.07 4901.95L2657.85 5141.94L2652.14 5381.58L2693.93 5617.96L2633.78 6082.19L2700.05 6531.07L2699.98 6531.72L2650.89 6961.58L2643.47 7368.11L2635.83 7748.49L2658.84 8097.92L2662.03 8413.78L2646.17 8690.98L2693.7 8926.64L2693.63 8927.36L2651.42 9374.37Z" fill="url(#paint17_linear_14_675)"/>
<path d="M2414.08 9374.68L2345.56 8926.64L2345.79 8925.69L2405.1 8690.11L2415.03 8413.67L2409.51 8098.34L2373.77 7748.91L2419.52 7368.15L2348.79 6961.89L2348.56 6531.15L2419.97 6081.43L2410.28 5618.19L2357.19 5381.73L2385.07 5142.55L2349.86 4901.42L2350.05 4900.55L2401.57 4658.2L2397.16 4416.09L2394.19 4172.3L2366.7 3929.04L2373.92 3685.06L2404.76 3442.99L2365.45 3202.81L2377.19 2962.75L2368.49 2726.6L2387.61 2262.02L2376.78 1813.45L2374.38 1383.47L2404.15 976.065L2396.05 596.185L2404.5 246.07L2363.58 -68.7295L2363.43 -346.883L2420.43 -583.6L2423.47 -1029.51L2433.51 -1029.44L2430.31 -582.383L2373.32 -345.704L2373.54 -69.3757L2414.46 245.576L2406.09 596.185L2414.15 976.331L2384.38 1383.81L2386.81 1813.3L2397.65 2262.1L2378.53 2726.6L2387.23 2962.82L2375.41 3202.24L2414.91 3442.8L2414.8 3443.52L2383.89 3685.83L2376.7 3928.62L2404.19 4171.69L2407.16 4415.93L2411.49 4659.15L2360.01 4901.72L2395.18 5142.39L2395.07 5143.04L2367.35 5381.2L2420.16 5616.97L2429.93 6082.12L2358.52 6531.94L2358.71 6961.02L2429.67 7367.89L2429.59 7368.65L2383.73 7748.98L2419.52 8097.77L2425.07 8413.74L2414.95 8691.52L2355.79 8927.13L2424 9373.16L2414.08 9374.68Z" fill="url(#paint18_linear_14_675)"/>
<path d="M2153.8 9374.56L2095.47 8927.55L2107.41 8691.06L2142.51 8413.21L2116.27 8098.68L2121.67 7748.3L2107.41 7368.23L2109.35 6961.01L2133.23 6530.88L2098.52 6082.61L2153.73 5618.22L2110.42 5381.73L2110.49 5381.09L2129.01 5142.09L2131.71 4901.53L2154.45 4659.57L2100.57 4416.2L2132.93 4172.45L2079.35 3928.55L2079.54 3927.56L2125.66 3684.27L2151.44 3443.25L2089.31 3202.16L2089.5 3201.06L2134.14 2962.1L2129.35 2726.49L2106.46 2262.48L2136.92 1812.96L2108.21 1383.77L2114.52 976.331L2140.46 595.728L2130.19 246.335L2080.87 -68.6158L2103.76 -347.263L2097.95 -582.308L2121.33 -1029.74L2131.37 -1029.21L2107.98 -582.156L2113.76 -346.997L2090.83 -68.9581L2140.15 245.423L2150.46 595.918L2124.52 976.749L2118.21 1383.51L2146.92 1813L2116.5 2262.56L2139.39 2726.15L2144.07 2962.9L2099.58 3201.82L2161.6 3442.49L2161.52 3443.41L2135.59 3685.75L2089.58 3928.4L2143.12 4172.03L2110.76 4415.78L2164.6 4658.92L2164.53 4659.72L2141.75 4902.03L2139.01 5142.51L2120.53 5381.2L2163.88 5617.92L2163.76 5618.68L2108.48 6082.8L2143.23 6530.76L2119.35 6961.32L2117.41 7368.08L2131.71 7748.22L2126.31 8098.34L2152.47 8413.44L2117.41 8691.94L2105.47 8927.17L2163.76 9373.27L2153.8 9374.56Z" fill="url(#paint19_linear_14_675)"/>
<path d="M1827.98 9373.99L1818.89 8926.98L1857.06 8691.25L1820.64 8414.5L1845.01 8097.88L1874.56 7747.96L1873.91 7368.04L1873.98 6961.01L1823.22 6531.11L1823.3 6530.46L1887.6 6081.51L1847.67 5618.49L1881.48 5381.58L1836.91 5142.7L1836.99 5142.01L1859.19 4901.11L1856.38 4659.3L1815.85 4415.93L1816 4415.06L1861.97 4171.31L1855.39 3928.62L1885.35 3685.29L1845.85 3443.71L1866.72 3201.56L1873.15 2962.86L1889.73 2726.07L1867.75 2262.48L1839.27 1813.64L1870.9 1383.05L1812.42 977.129L1833.76 595.804L1820.9 246.374L1843.79 -69.7182L1854.78 -347.073L1847.82 -582.27L1820.33 -1029.17L1830.33 -1029.78L1857.86 -582.726L1864.82 -346.997L1853.83 -69.186L1830.9 246.564L1843.79 595.88L1822.39 976.711L1880.83 1382.71L1849.27 1813.68L1877.75 2261.91L1899.73 2726.18L1883.15 2963.36L1876.72 3202.13L1855.81 3443.33L1895.51 3685.1L1895.39 3685.82L1865.35 3929.08L1871.93 4172.11L1826.04 4416.05L1866.34 4658.43L1869.19 4901.53L1847.03 5142.24L1891.63 5381.35L1857.6 5618.79L1897.52 6081.81L1833.34 6531.22L1883.95 6960.44V7368.04L1884.56 7748.37L1855.01 8098.68L1830.64 8414.24L1867.22 8691.4L1828.85 8927.7L1837.98 9373.8L1827.98 9373.99Z" fill="url(#paint20_linear_14_675)"/>
<path d="M1609.45 9374.07L1599.41 9373.77L1613.63 8926.75L1585.23 8691.93L1573.94 8414.05L1556.03 8098.56L1597.47 7747.8L1548.54 7368.68L1547.13 6961.05L1607.93 6530.46L1593.06 6082.38L1569.07 5618.34L1563.97 5381.58L1587.97 5141.98L1603.22 4901.27L1598.61 4659.34L1554.51 4416.16L1554.62 4415.4L1582.49 4171.65L1600.78 3928.09L1571.88 3685.06L1572.04 3684.34L1614.96 3442.95L1563.94 3202.2L1564.05 3201.37L1594.62 2963.01L1562.87 2727.06L1563.63 2262.21L1612.3 1812.77L1591.92 1383.66L1545.49 976.977L1573.67 595.69L1554.62 246.488L1589.18 -69.9083L1590.71 -346.883L1576.98 -582.118L1561.88 -1029.28L1571.92 -1029.63L1586.98 -582.612L1600.71 -347.149L1599.18 -69.338L1564.58 246.754L1583.67 595.804L1555.46 976.787L1601.92 1382.86L1622.3 1813.07L1573.63 2262.78L1572.83 2726.41L1604.7 2962.98L1604.62 2963.66L1574.09 3201.78L1625.19 3442.8L1625.04 3443.75L1582.04 3685.37L1610.74 3927.9L1592.45 4172.6L1564.66 4415.82L1608.58 4658.35L1613.25 4901.5L1597.97 5142.77L1573.97 5381.96L1579.11 5617.96L1603.1 6081.96L1617.89 6530.99L1557.09 6961.74L1558.54 7368.04L1607.44 7747.77L1566.03 8098.87L1583.94 8413.55L1595.23 8691.1L1623.63 8926.3L1609.45 9374.07Z" fill="url(#paint21_linear_14_675)"/>
<path d="M1338.49 9374.07L1324.27 8927.06L1340.7 8690.99L1297.39 8414.62L1303.17 8098.19L1322.98 7748.11L1320.96 7368.08L1321.27 6961.02L1290.24 6531.53L1291.88 6082.19L1326.74 5617.69L1334.35 5381.28L1351.19 5143.04L1278.3 4901.88L1278.53 4900.7L1321.27 4658.39L1332.79 4416.43L1278.15 4172.22L1278.38 4171.16L1332.14 3928.13L1314.35 3685.56L1305.79 3443.06L1318.99 3201.71L1316.4 2963.05L1335.98 2725.99L1323.85 2262.37L1355.91 1812.96L1313.89 1383.92L1296.32 976.635L1309.14 595.918L1345.11 246.488L1277.08 -69.3001L1330.77 -346.997L1297.65 -581.738L1333.82 -1029.85L1343.82 -1029.06L1307.58 -582.042L1340.93 -346.731L1340.77 -345.895L1287.31 -69.4141L1355.26 245.917L1355.19 246.716L1319.18 596.603L1306.32 976.597L1323.89 1383.2L1365.91 1812.84L1333.89 2262.59L1345.98 2726.26L1326.4 2963.43L1328.99 3201.94L1315.83 3443.18L1324.35 3685.03L1342.22 3928.85L1342.07 3929.57L1288.42 4172.22L1342.87 4415.55L1342.83 4416.2L1331.23 4659.49L1288.61 4901.27L1361.35 5141.9L1361.27 5142.81L1344.39 5381.81L1336.74 5618.22L1301.88 6082.61L1300.28 6531.18L1331.27 6960.67L1331 7368.04L1332.98 7748.37L1313.21 8098.57L1307.39 8413.94L1350.62 8690.57L1334.27 8927.25L1348.49 9373.77L1338.49 9374.07Z" fill="url(#paint22_linear_14_675)"/>
<path d="M1020.16 9374.53L1010.19 9373.31L1064.04 8926.3L1080.12 8690.98L1082.48 8413.82L1058.41 8098.64L1041.79 7748.64L1072.06 7367.62L1071.83 6961.01L1046.81 6531.45L1025.67 6082.46L1089.36 5618.49L1017.08 5381.62L1073.66 5142.55L1010.04 4901.42L1010.54 4900.01L1089.63 4658.47L1087.76 4416.01L1087.42 4172.22L1028.22 3928.97V3928.24L1038.52 3684.99L1067.08 3442.3L1078.98 3201.75L1057.08 2963.47L1028.37 2726.37L1028.45 2725.76L1089.36 2261.57L1084.19 1813.38L1074.68 1383.54L1016.51 976.407L1016.62 975.684L1073.58 596.146L1013.46 246.298L1013.54 245.537L1055.29 -70.0225L1075.71 -347.225L1047.19 -581.814L1020.99 -1029.17L1031.03 -1029.74L1057.19 -582.726L1085.71 -347.453L1065.25 -68.996L1023.62 246.107L1083.73 596.032L1083.62 596.831L1026.66 976.445L1084.64 1382.75L1094.23 1813.22L1099.36 2262.18L1038.48 2726.41L1067.04 2962.41L1088.98 3201.52L1077.04 3443.14L1048.52 3685.79L1038.29 3927.98L1097.31 4171.04L1097.8 4415.97L1099.63 4660.03L1020.5 4901.72L1084 5142.39L1083.69 5143.61L1027.46 5381.28L1099.59 5617.65L1099.44 5618.76L1035.67 6082.91L1056.81 6530.92L1081.87 6960.75L1082.06 7368.04L1051.79 7748.79L1068.41 8098.03L1092.48 8413.48L1090.12 8691.37L1074.04 8927.25L1020.16 9374.53Z" fill="url(#paint23_linear_14_675)"/>
<path d="M801.366 9374.03L791.366 9373.8L802.621 8926.79L772.049 8691.97L794.826 8413.44L775.548 8098.57L780.909 7748.3L775.472 7368.11L808.059 6960.63L770.681 6531.6L761.06 6082.34L747.334 5617.43L747.562 5616.63L817.336 5380.9L800.567 5142.81L793.115 4901.72L742.619 4659.42L775.966 4415.29L787.753 4171.99L780.339 3928.62L749.805 3684.8L750.072 3683.85L818.743 3442.42L796.689 3202.47L786.727 2963.2L805.131 2726.03L778.818 2262.52L800.454 1813.07L744.748 1384.08L793.419 975.837L762.239 596.488L811.709 246.145L774.863 -68.7681L755.471 -346.503L749.273 -582.308L804.56 -1030.08L814.484 -1028.83L759.273 -581.814L765.509 -346.997L784.825 -69.7184L821.823 246.259L821.747 246.906L772.202 596.792L803.381 975.989L754.673 1384.04L810.454 1812.65L788.856 2262.48L815.131 2726.11L796.727 2963.39L806.689 3201.78L828.896 3443.37L759.996 3685.6L790.301 3927.86L797.792 4172.07L785.928 4416.24L752.771 4659.08L803.077 4900.55L810.568 5142.32L827.489 5382L827.222 5382.87L757.372 5618.72L771.099 6082.08L780.681 6531.03L818.058 6960.6L785.472 7368.46L790.91 7748.34L785.586 8098.34L804.864 8413.55L782.012 8691.75L812.621 8926.26L801.366 9374.03Z" fill="url(#paint24_linear_14_675)"/>
<path d="M522.193 9373.96L518.619 8926.94L509.265 8691.52L515.159 8413.74L487.173 8098.72L508.543 7748.07L527.06 7367.81L477.286 6961.62L496.565 6530.92L513.752 6082.04L520.862 5617.99L474.967 5381.66L475.043 5380.9L502.23 5141.9L549.114 4900.62L555.312 4659.11L510.406 4416.09L510.557 4415.25L546.718 4172.26L508.124 3929.27L521.661 3684.91L551.509 3442.26L535.882 3202.32L543.866 2962.82L539.722 2726.49L493.941 2262.71L478.351 1813.49L510.634 1383.05L503.447 976.52L508.124 596.032L553.221 246.335L496.109 -69.2245L496.223 -69.9468L527.82 -347.416L550.787 -582.27L480.063 -1028.68L489.987 -1030.23L560.902 -582.574L560.826 -581.928L537.821 -346.389L506.261 -69.5287L563.373 246.069L563.297 246.867L518.125 596.716L513.485 976.482L520.634 1383.35L488.352 1813.68L503.941 2262.06L549.722 2725.92L553.905 2962.94L545.882 3202.16L561.472 3442.57L531.623 3685.82L518.087 3928.78L556.871 4172.22L556.757 4172.98L520.558 4415.9L565.274 4658.35L559.038 4901.68L512.117 5143.42L485.082 5381.28L530.825 5617.12L523.752 6082.31L506.565 6531.33L487.287 6961.24L537.022 7367.43L518.581 7748.64L497.173 8098.57L525.159 8413.4L519.303 8691.44L528.619 8926.71L532.231 9373.88L522.193 9373.96Z" fill="url(#paint25_linear_14_675)"/>
<path d="M224.39 9374.6L214.465 9373.23L277.091 8926.22L260.969 8691.67L267.851 8413.71L244.885 8098.64L213.363 7748.83L270.475 7367.28L279.411 6960.9L276.065 6531.18L213.629 6082.91L227.584 5617.92L232.755 5381.35L275.608 5142.43L237.812 4902.37L242.451 4659.15L270.285 4416.12L227.279 4172.22L227.432 4171.31L271.692 3928.32L244.961 3685.75L250.778 3442.76L212.489 3202.05L212.602 3201.33L243.934 2962.37L223.211 2726.83L280.399 2262.29L219.067 1813.98L235.036 1383.24L221.044 976.597L284.582 595.88L253.783 246.64L238.041 -69.11L246.558 -347.035L274.543 -583.03L248.269 -1029.17L258.269 -1029.74L284.544 -582.726L256.558 -346.275L248.079 -69.2241L263.783 245.955L294.696 596.26L294.582 596.907L230.968 977.243L245.075 1383.24L229.029 1813.49L290.475 2262.21L290.4 2262.86L233.211 2727.02L253.934 2962.56L222.641 3201.94L260.741 3442.11L254.923 3685.33L281.844 3928.66L281.692 3929.38L237.47 4172.22L280.437 4415.82L280.361 4416.54L252.414 4659.84L247.774 4901.69L285.798 5142.51L285.647 5143.34L242.679 5382.34L237.622 5618.19L223.629 6082.38L286.065 6530.46L289.449 6960.98L280.475 7368.15L223.325 7749.13L254.847 8097.81L277.852 8413.48L270.969 8691.44L287.092 8926.56L224.39 9374.6Z" fill="url(#paint26_linear_14_675)"/>
<path d="M-50.8277 9373.99L-59.7637 8926.37L-59.6114 8925.72L-4.17261 8690.83L-14.0968 8414.01L15.0678 8097.8L0.200245 7748.6L9.85849 7367.92L-18.6976 6961.39L-57.5199 6530.95L-57.4062 6530.31L17.6531 6082.12L-42.1585 5618.72L-38.6602 5381.39L16.0945 5142.09L-2.95558 4901.95L-38.3561 4659.99L-57.6341 4415.52L9.40222 4171.96L-30.4849 3929.31L-55.7329 3685.03L-55.6187 3684.3L-12.0053 3442L-12.1195 3201.97L-56.9875 2963.2L-56.8738 2962.44L-30.7513 2725.84L-19.6862 2262.1L-27.5951 1813.41L-45.9609 1383.66L-39.1926 976.331L-40.2193 596.07L-19.1158 245.917L-30.5991 -69.1861L-19.4959 -347.073L-47.3678 -581.852L-15.8077 -1029.82L-5.84544 -1029.09L-37.4055 -582.08L-9.4956 -347.453L-20.5988 -69.1861L-9.07739 246.031L-30.1809 596.374L-29.1922 976.407L-35.9226 1383.51L-17.5567 1813.11L-9.64784 2262.14L-20.7891 2726.53L-46.8354 2962.82L-2.15722 3201.06L-2.04304 3442.87L-45.6184 3685.41L-20.5226 3927.98L19.6685 4172.49L-47.4815 4416.47L-28.3939 4658.85L7.00669 4900.85L26.2085 5142.85L26.0567 5143.57L-28.736 5382.57L-32.1582 5618.15L27.8057 6082.31L27.6535 6083.07L-47.4059 6531.33L-8.69724 6960.56L19.8969 7367.7L10.2386 7748.53L25.0681 8098.03L-4.09649 8414.31L5.90384 8691.82L-49.6872 8927.44L-40.7897 9373.8L-50.8277 9373.99Z" fill="url(#paint27_linear_14_675)"/>
</g>
<defs>
<linearGradient id="paint0_linear_14_675" x1="3090" y1="-57.4998" x2="-634" y2="6276.5" gradientUnits="userSpaceOnUse">
<stop offset="0.130884" stop-color="#EBEBEB" stop-opacity="0.4"/>
<stop offset="1" stop-color="#EBEBEB"/>
</linearGradient>
<linearGradient id="paint1_linear_14_675" x1="3081.2" y1="2939.84" x2="3080.92" y2="3003" gradientUnits="userSpaceOnUse">
<stop offset="0.130884" stop-color="#EBEBEB" stop-opacity="0.4"/>
<stop offset="1" stop-color="#EBEBEB"/>
</linearGradient>
<linearGradient id="paint2_linear_14_675" x1="3081.36" y1="2675.09" x2="3081.1" y2="2736.21" gradientUnits="userSpaceOnUse">
<stop offset="0.130884" stop-color="#EBEBEB" stop-opacity="0.4"/>
<stop offset="1" stop-color="#EBEBEB"/>
</linearGradient>
<linearGradient id="paint3_linear_14_675" x1="3081.19" y1="2406.3" x2="3080.9" y2="2470.76" gradientUnits="userSpaceOnUse">
<stop offset="0.130884" stop-color="#EBEBEB" stop-opacity="0.4"/>
<stop offset="1" stop-color="#EBEBEB"/>
</linearGradient>
<linearGradient id="paint4_linear_14_675" x1="3081.25" y1="2138.45" x2="3080.98" y2="2200.65" gradientUnits="userSpaceOnUse">
<stop offset="0.130884" stop-color="#EBEBEB" stop-opacity="0.4"/>
<stop offset="1" stop-color="#EBEBEB"/>
</linearGradient>
<linearGradient id="paint5_linear_14_675" x1="3081.48" y1="1872.4" x2="3081.19" y2="1936.91" gradientUnits="userSpaceOnUse">
<stop offset="0.130884" stop-color="#EBEBEB" stop-opacity="0.4"/>
<stop offset="1" stop-color="#EBEBEB"/>
</linearGradient>
<linearGradient id="paint6_linear_14_675" x1="3081.31" y1="1606.09" x2="3081.03" y2="1669.83" gradientUnits="userSpaceOnUse">
<stop offset="0.130884" stop-color="#EBEBEB" stop-opacity="0.4"/>
<stop offset="1" stop-color="#EBEBEB"/>
</linearGradient>
<linearGradient id="paint7_linear_14_675" x1="3081.6" y1="1339.49" x2="3081.34" y2="1400.36" gradientUnits="userSpaceOnUse">
<stop offset="0.130884" stop-color="#EBEBEB" stop-opacity="0.4"/>
<stop offset="1" stop-color="#EBEBEB"/>
</linearGradient>
<linearGradient id="paint8_linear_14_675" x1="3081.43" y1="1076.9" x2="3081.17" y2="1137.52" gradientUnits="userSpaceOnUse">
<stop offset="0.130884" stop-color="#EBEBEB" stop-opacity="0.4"/>
<stop offset="1" stop-color="#EBEBEB"/>
</linearGradient>
<linearGradient id="paint9_linear_14_675" x1="3081.34" y1="804.96" x2="3081.08" y2="866.726" gradientUnits="userSpaceOnUse">
<stop offset="0.130884" stop-color="#EBEBEB" stop-opacity="0.4"/>
<stop offset="1" stop-color="#EBEBEB"/>
</linearGradient>
<linearGradient id="paint10_linear_14_675" x1="3081.58" y1="539.937" x2="3081.3" y2="603.435" gradientUnits="userSpaceOnUse">
<stop offset="0.130884" stop-color="#EBEBEB" stop-opacity="0.4"/>
<stop offset="1" stop-color="#EBEBEB"/>
</linearGradient>
<linearGradient id="paint11_linear_14_675" x1="3081.23" y1="273.373" x2="3080.95" y2="337.457" gradientUnits="userSpaceOnUse">
<stop offset="0.130884" stop-color="#EBEBEB" stop-opacity="0.4"/>
<stop offset="1" stop-color="#EBEBEB"/>
</linearGradient>
<linearGradient id="paint12_linear_14_675" x1="3081.36" y1="9.53018" x2="3081.11" y2="68.6378" gradientUnits="userSpaceOnUse">
<stop offset="0.130884" stop-color="#EBEBEB" stop-opacity="0.4"/>
<stop offset="1" stop-color="#EBEBEB"/>
</linearGradient>
<linearGradient id="paint13_linear_14_675" x1="3736.08" y1="-24.8762" x2="3626.23" y2="-23.45" gradientUnits="userSpaceOnUse">
<stop offset="0.130884" stop-color="#EBEBEB" stop-opacity="0.4"/>
<stop offset="1" stop-color="#EBEBEB"/>
</linearGradient>
<linearGradient id="paint14_linear_14_675" x1="3466.28" y1="-24.8872" x2="3364.17" y2="-23.6545" gradientUnits="userSpaceOnUse">
<stop offset="0.130884" stop-color="#EBEBEB" stop-opacity="0.4"/>
<stop offset="1" stop-color="#EBEBEB"/>
</linearGradient>
<linearGradient id="paint15_linear_14_675" x1="3200.73" y1="-24.9927" x2="3096.14" y2="-23.6997" gradientUnits="userSpaceOnUse">
<stop offset="0.130884" stop-color="#EBEBEB" stop-opacity="0.4"/>
<stop offset="1" stop-color="#EBEBEB"/>
</linearGradient>
<linearGradient id="paint16_linear_14_675" x1="2932.26" y1="-25.2422" x2="2827.25" y2="-23.9389" gradientUnits="userSpaceOnUse">
<stop offset="0.130884" stop-color="#EBEBEB" stop-opacity="0.4"/>
<stop offset="1" stop-color="#EBEBEB"/>
</linearGradient>
<linearGradient id="paint17_linear_14_675" x1="2668.25" y1="-24.6884" x2="2569.95" y2="-23.546" gradientUnits="userSpaceOnUse">
<stop offset="0.130884" stop-color="#EBEBEB" stop-opacity="0.4"/>
<stop offset="1" stop-color="#EBEBEB"/>
</linearGradient>
<linearGradient id="paint18_linear_14_675" x1="2398.7" y1="-24.5901" x2="2291.09" y2="-23.2213" gradientUnits="userSpaceOnUse">
<stop offset="0.130884" stop-color="#EBEBEB" stop-opacity="0.4"/>
<stop offset="1" stop-color="#EBEBEB"/>
</linearGradient>
<linearGradient id="paint19_linear_14_675" x1="2130.86" y1="-24.8076" x2="2026.55" y2="-23.5216" gradientUnits="userSpaceOnUse">
<stop offset="0.130884" stop-color="#EBEBEB" stop-opacity="0.4"/>
<stop offset="1" stop-color="#EBEBEB"/>
</linearGradient>
<linearGradient id="paint20_linear_14_675" x1="1865.17" y1="-24.8969" x2="1758.35" y2="-23.548" gradientUnits="userSpaceOnUse">
<stop offset="0.130884" stop-color="#EBEBEB" stop-opacity="0.4"/>
<stop offset="1" stop-color="#EBEBEB"/>
</linearGradient>
<linearGradient id="paint21_linear_14_675" x1="1593.65" y1="-24.7521" x2="1496.13" y2="-23.628" gradientUnits="userSpaceOnUse">
<stop offset="0.130884" stop-color="#EBEBEB" stop-opacity="0.4"/>
<stop offset="1" stop-color="#EBEBEB"/>
</linearGradient>
<linearGradient id="paint22_linear_14_675" x1="1330.75" y1="-24.9582" x2="1222.07" y2="-23.562" gradientUnits="userSpaceOnUse">
<stop offset="0.130884" stop-color="#EBEBEB" stop-opacity="0.4"/>
<stop offset="1" stop-color="#EBEBEB"/>
</linearGradient>
<linearGradient id="paint23_linear_14_675" x1="1064.17" y1="-24.8113" x2="954.561" y2="-23.3912" gradientUnits="userSpaceOnUse">
<stop offset="0.130884" stop-color="#EBEBEB" stop-opacity="0.4"/>
<stop offset="1" stop-color="#EBEBEB"/>
</linearGradient>
<linearGradient id="paint24_linear_14_675" x1="794.747" y1="-25.1682" x2="689.185" y2="-23.851" gradientUnits="userSpaceOnUse">
<stop offset="0.130884" stop-color="#EBEBEB" stop-opacity="0.4"/>
<stop offset="1" stop-color="#EBEBEB"/>
</linearGradient>
<linearGradient id="paint25_linear_14_675" x1="529.53" y1="-25.3132" x2="419.039" y2="-23.87" gradientUnits="userSpaceOnUse">
<stop offset="0.130884" stop-color="#EBEBEB" stop-opacity="0.4"/>
<stop offset="1" stop-color="#EBEBEB"/>
</linearGradient>
<linearGradient id="paint26_linear_14_675" x1="262.158" y1="-24.8039" x2="161.573" y2="-23.608" gradientUnits="userSpaceOnUse">
<stop offset="0.130884" stop-color="#EBEBEB" stop-opacity="0.4"/>
<stop offset="1" stop-color="#EBEBEB"/>
</linearGradient>
<linearGradient id="paint27_linear_14_675" x1="-6.85503" y1="-24.9313" x2="-113.998" y2="-23.5742" gradientUnits="userSpaceOnUse">
<stop offset="0.130884" stop-color="#EBEBEB" stop-opacity="0.4"/>
<stop offset="1" stop-color="#EBEBEB"/>
</linearGradient>
<clipPath id="clip0_14_675">
<rect width="3712" height="3118" fill="white"/>
</clipPath>
</defs>
</svg>
